<svg fill="#FFFFFF" xmlns="http://www.w3.org/2000/svg" data-name="Layer 1" viewBox="0 0 100 100" x="0px" y="0px"><title>UPDATE</title><path d="M89.5,50.35a2,2,0,0,0-1.11-1.8l-9-4.48,8.94-4.31a2,2,0,0,0,0-3.59L50.89,17.41a2,2,0,0,0-1.79,0L11.61,36.16a2,2,0,0,0,0,3.59l8.94,4.31-9,4.48a2,2,0,0,0,0,3.59l8.94,4.31-9,4.48a2,2,0,0,0,0,3.59L49.13,82.6a2,2,0,0,0,1.74,0l37.5-18.08a2,2,0,0,0,0-3.59l-9-4.48,8.94-4.31A2,2,0,0,0,89.5,50.35ZM50,21.43,83,37.91,50,53.81,17,37.91ZM74.87,58.64l8.09,4L50,78.58,17,62.69l8.09-4,24,11.57a2,2,0,0,0,1.74,0Zm-.85-4h0L50,66.2,26,54.61h0L17,50.3l8.09-4,24,11.57a2,2,0,0,0,1.74,0l24-11.57,8.09,4Z"></path></svg>