<svg xmlns="http://www.w3.org/2000/svg" xmlns:xlink="http://www.w3.org/1999/xlink" version="1.1" x="0px" y="0px" viewBox="0 0 100 125" enable-background="new 0 0 100 100" xml:space="preserve"><g><path fill="#000000" d="M78.4,94.924H58.61c-0.931,0-1.685-0.753-1.685-1.683V62.478c0-0.931,0.754-1.686,1.685-1.686H78.4   c0.931,0,1.685,0.755,1.685,1.686v30.764C80.085,94.171,79.331,94.924,78.4,94.924z M60.294,91.557h16.423V64.16H60.294V91.557z"/></g><g><path fill="#000000" d="M78.4,70.089H58.61c-0.931,0-1.685-0.753-1.685-1.683v-5.929c0-0.931,0.754-1.686,1.685-1.686H78.4   c0.931,0,1.685,0.755,1.685,1.686v5.929C80.085,69.336,79.331,70.089,78.4,70.089z M60.294,66.721h16.423V64.16H60.294V66.721z"/></g><g><path fill="#000000" d="M89.392,94.924H10.607c-0.931,0-1.684-0.753-1.684-1.683V40.628c0-0.57,0.289-1.102,0.766-1.413   c0.483-0.313,1.085-0.36,1.605-0.125l17.324,7.734v-6.197c0-0.57,0.289-1.102,0.766-1.413c0.483-0.313,1.083-0.36,1.605-0.125   l17.327,7.734v-6.197c0-0.57,0.288-1.102,0.766-1.413c0.483-0.313,1.082-0.36,1.605-0.125l17.326,7.734v-6.197   c0-0.57,0.29-1.102,0.766-1.413c0.484-0.313,1.083-0.36,1.605-0.125l19.694,8.793c0.606,0.271,0.997,0.873,0.997,1.537v43.82   C91.076,94.171,90.323,94.924,89.392,94.924z M12.291,91.557h75.417V50.514l-16.326-7.289v6.196c0,0.571-0.289,1.103-0.767,1.413   c-0.483,0.311-1.086,0.356-1.605,0.125l-17.326-7.736v6.198c0,0.571-0.289,1.103-0.767,1.413c-0.483,0.311-1.085,0.356-1.604,0.125   l-17.327-7.736v6.198c0,0.571-0.29,1.103-0.767,1.413c-0.483,0.311-1.082,0.356-1.604,0.125l-17.324-7.734V91.557z"/></g><g><path fill="#000000" d="M31.93,72.664h-9.032c-0.93,0-1.684-0.753-1.684-1.683v-8.504c0-0.931,0.754-1.686,1.684-1.686h9.032   c0.931,0,1.684,0.755,1.684,1.686v8.504C33.614,71.911,32.861,72.664,31.93,72.664z M24.583,69.296h5.664V64.16h-5.664V69.296z"/></g><g><path fill="#000000" d="M46.139,72.664h-9.032c-0.931,0-1.684-0.753-1.684-1.683v-8.504c0-0.931,0.753-1.686,1.684-1.686h9.032   c0.931,0,1.684,0.755,1.684,1.686v8.504C47.822,71.911,47.069,72.664,46.139,72.664z M38.791,69.296h5.664V64.16h-5.664V69.296z"/></g><g><path fill="#000000" d="M31.93,86.136h-9.032c-0.93,0-1.684-0.753-1.684-1.684v-8.504c0-0.931,0.754-1.683,1.684-1.683h9.032   c0.931,0,1.684,0.752,1.684,1.683v8.504C33.614,85.383,32.861,86.136,31.93,86.136z M24.583,82.77h5.664v-5.137h-5.664V82.77z"/></g><g><path fill="#000000" d="M46.139,86.136h-9.032c-0.931,0-1.684-0.753-1.684-1.684v-8.504c0-0.931,0.753-1.683,1.684-1.683h9.032   c0.931,0,1.684,0.752,1.684,1.683v8.504C47.822,85.383,47.069,86.136,46.139,86.136z M38.791,82.77h5.664v-5.137h-5.664V82.77z"/></g><g><path fill="#000000" d="M69.698,51.105c-0.234,0-0.468-0.048-0.688-0.146l-7.424-3.313c-0.604-0.271-0.995-0.872-0.995-1.535   l-0.063-28.575h-0.214c-0.931,0-1.683-0.753-1.683-1.684V8.759c0-0.931,0.752-1.684,1.683-1.684h20.209   c0.93,0,1.684,0.753,1.684,1.684v7.092c0,0.931-0.754,1.684-1.684,1.684h-0.52l0.082,26.5c0.042,0.151,0.065,0.312,0.065,0.479   c0,0.931-0.754,1.684-1.684,1.684c-0.021-0.003-0.044-0.002-0.066,0c-0.233,0-0.467-0.048-0.687-0.146l-6.332-2.827v6.196   c0,0.571-0.289,1.103-0.767,1.413C70.335,51.013,70.017,51.105,69.698,51.105z M63.955,45.014l4.059,1.811v-6.197   c0-0.57,0.29-1.102,0.766-1.413c0.484-0.313,1.083-0.36,1.605-0.125l6.325,2.824l-0.082-26.058c0-0.447,0.174-0.876,0.489-1.193   c0.316-0.318,0.747-0.496,1.194-0.496h0.526v-3.725h-16.84v3.725h0.211c0.928,0,1.681,0.752,1.684,1.681L63.955,45.014z"/></g><g><path fill="#000000" d="M77.785,17.536H63.787c-0.931,0-1.684-0.753-1.684-1.684c0-0.931,0.753-1.684,1.684-1.684h13.998   c0.931,0,1.684,0.753,1.684,1.684C79.469,16.783,78.716,17.536,77.785,17.536z"/></g></svg>