<svg xmlns="http://www.w3.org/2000/svg" data-name="Layer 1" viewBox="0 0 100 125" x="0px" y="0px"><title>Artboard 13</title><path d="M33,18H25a3,3,0,0,0-3,3V79a3,3,0,0,0,3,3H75a3,3,0,0,0,3-3V36.89a2.85,2.85,0,0,0-4.87-2L64,44V36.89a2.85,2.85,0,0,0-4.87-2L50,44V36.89a2.85,2.85,0,0,0-4.87-2L36,44V21A3,3,0,0,0,33,18ZM59,55a2,2,0,0,1,2-2h4a2,2,0,0,1,2,2v4a2,2,0,0,1-2,2H61a2,2,0,0,1-2-2Zm0,13a2,2,0,0,1,2-2h4a2,2,0,0,1,2,2v4a2,2,0,0,1-2,2H61a2,2,0,0,1-2-2ZM46,55a2,2,0,0,1,2-2h4a2,2,0,0,1,2,2v4a2,2,0,0,1-2,2H48a2,2,0,0,1-2-2Zm0,13a2,2,0,0,1,2-2h4a2,2,0,0,1,2,2v4a2,2,0,0,1-2,2H48a2,2,0,0,1-2-2Zm-5,4a2,2,0,0,1-2,2H35a2,2,0,0,1-2-2V68a2,2,0,0,1,2-2h4a2,2,0,0,1,2,2ZM39,53a2,2,0,0,1,2,2v4a2,2,0,0,1-2,2H35a2,2,0,0,1-2-2V55a2,2,0,0,1,2-2Z"/></svg>