<?xml version="1.0" encoding="UTF-8"?>
<svg width="84px" height="88px" viewBox="0 0 84 88" version="1.1" xmlns="http://www.w3.org/2000/svg" xmlns:xlink="http://www.w3.org/1999/xlink">
    <title>factory</title>
    <defs></defs>
    <g id="Page-1" stroke="none" stroke-width="1" fill="none" fill-rule="evenodd">
        <g id="factory" fill-rule="nonzero" fill="#FFFFFF">
            <path d="M70.4,87.924 L50.61,87.924 C49.679,87.924 48.925,87.171 48.925,86.241 L48.925,55.478 C48.925,54.547 49.679,53.792 50.61,53.792 L70.4,53.792 C71.331,53.792 72.085,54.547 72.085,55.478 L72.085,86.242 C72.085,87.171 71.331,87.924 70.4,87.924 Z M52.294,84.557 L68.717,84.557 L68.717,57.16 L52.294,57.16 L52.294,84.557 Z" id="Shape"></path>
            <path d="M70.4,63.089 L50.61,63.089 C49.679,63.089 48.925,62.336 48.925,61.406 L48.925,55.477 C48.925,54.546 49.679,53.791 50.61,53.791 L70.4,53.791 C71.331,53.791 72.085,54.546 72.085,55.477 L72.085,61.406 C72.085,62.336 71.331,63.089 70.4,63.089 Z M52.294,59.721 L68.717,59.721 L68.717,57.16 L52.294,57.16 L52.294,59.721 Z" id="Shape"></path>
            <path d="M81.392,87.924 L2.607,87.924 C1.676,87.924 0.923,87.171 0.923,86.241 L0.923,33.628 C0.923,33.058 1.212,32.526 1.689,32.215 C2.172,31.902 2.774,31.855 3.294,32.09 L20.618,39.824 L20.618,33.627 C20.618,33.057 20.907,32.525 21.384,32.214 C21.867,31.901 22.467,31.854 22.989,32.089 L40.316,39.823 L40.316,33.626 C40.316,33.056 40.604,32.524 41.082,32.213 C41.565,31.9 42.164,31.853 42.687,32.088 L60.013,39.822 L60.013,33.625 C60.013,33.055 60.303,32.523 60.779,32.212 C61.263,31.899 61.862,31.852 62.384,32.087 L82.078,40.88 C82.684,41.151 83.075,41.753 83.075,42.417 L83.075,86.237 C83.076,87.171 82.323,87.924 81.392,87.924 Z M4.291,84.557 L79.708,84.557 L79.708,43.514 L63.382,36.225 L63.382,42.421 C63.382,42.992 63.093,43.524 62.615,43.834 C62.132,44.145 61.529,44.19 61.01,43.959 L43.684,36.223 L43.684,42.421 C43.684,42.992 43.395,43.524 42.917,43.834 C42.434,44.145 41.832,44.19 41.313,43.959 L23.986,36.223 L23.986,42.421 C23.986,42.992 23.696,43.524 23.219,43.834 C22.736,44.145 22.137,44.19 21.615,43.959 L4.291,36.225 L4.291,84.557 Z" id="Shape"></path>
            <path d="M23.93,65.664 L14.898,65.664 C13.968,65.664 13.214,64.911 13.214,63.981 L13.214,55.477 C13.214,54.546 13.968,53.791 14.898,53.791 L23.93,53.791 C24.861,53.791 25.614,54.546 25.614,55.477 L25.614,63.981 C25.614,64.911 24.861,65.664 23.93,65.664 Z M16.583,62.296 L22.247,62.296 L22.247,57.16 L16.583,57.16 L16.583,62.296 Z" id="Shape"></path>
            <path d="M38.139,65.664 L29.107,65.664 C28.176,65.664 27.423,64.911 27.423,63.981 L27.423,55.477 C27.423,54.546 28.176,53.791 29.107,53.791 L38.139,53.791 C39.07,53.791 39.823,54.546 39.823,55.477 L39.823,63.981 C39.822,64.911 39.069,65.664 38.139,65.664 Z M30.791,62.296 L36.455,62.296 L36.455,57.16 L30.791,57.16 L30.791,62.296 Z" id="Shape"></path>
            <path d="M23.93,79.136 L14.898,79.136 C13.968,79.136 13.214,78.383 13.214,77.452 L13.214,68.948 C13.214,68.017 13.968,67.265 14.898,67.265 L23.93,67.265 C24.861,67.265 25.614,68.017 25.614,68.948 L25.614,77.452 C25.614,78.383 24.861,79.136 23.93,79.136 Z M16.583,75.77 L22.247,75.77 L22.247,70.633 L16.583,70.633 L16.583,75.77 Z" id="Shape"></path>
            <path d="M38.139,79.136 L29.107,79.136 C28.176,79.136 27.423,78.383 27.423,77.452 L27.423,68.948 C27.423,68.017 28.176,67.265 29.107,67.265 L38.139,67.265 C39.07,67.265 39.823,68.017 39.823,68.948 L39.823,77.452 C39.822,78.383 39.069,79.136 38.139,79.136 Z M30.791,75.77 L36.455,75.77 L36.455,70.633 L30.791,70.633 L30.791,75.77 Z" id="Shape"></path>
            <path d="M61.698,44.105 C61.464,44.105 61.23,44.057 61.01,43.959 L53.586,40.646 C52.982,40.375 52.591,39.774 52.591,39.111 L52.528,10.536 L52.314,10.536 C51.383,10.536 50.631,9.783 50.631,8.852 L50.631,1.759 C50.631,0.828 51.383,0.075 52.314,0.075 L72.523,0.075 C73.453,0.075 74.207,0.828 74.207,1.759 L74.207,8.851 C74.207,9.782 73.453,10.535 72.523,10.535 L72.003,10.535 L72.085,37.035 C72.127,37.186 72.15,37.347 72.15,37.514 C72.15,38.445 71.396,39.198 70.466,39.198 C70.445,39.195 70.422,39.196 70.4,39.198 C70.167,39.198 69.933,39.15 69.713,39.052 L63.381,36.225 L63.381,42.421 C63.381,42.992 63.092,43.524 62.614,43.834 C62.335,44.013 62.017,44.105 61.698,44.105 Z M55.955,38.014 L60.014,39.825 L60.014,33.628 C60.014,33.058 60.304,32.526 60.78,32.215 C61.264,31.902 61.863,31.855 62.385,32.09 L68.71,34.914 L68.628,8.856 C68.628,8.409 68.802,7.98 69.117,7.663 C69.433,7.345 69.864,7.167 70.311,7.167 L70.837,7.167 L70.837,3.442 L53.997,3.442 L53.997,7.167 L54.208,7.167 C55.136,7.167 55.889,7.919 55.892,8.848 L55.955,38.014 Z" id="Shape"></path>
            <path d="M69.785,10.536 L55.787,10.536 C54.856,10.536 54.103,9.783 54.103,8.852 C54.103,7.921 54.856,7.168 55.787,7.168 L69.785,7.168 C70.716,7.168 71.469,7.921 71.469,8.852 C71.469,9.783 70.716,10.536 69.785,10.536 Z" id="Shape"></path>
        </g>
    </g>
</svg>