<?xml version="1.0" encoding="UTF-8"?>
<svg width="56px" height="64px" viewBox="0 0 56 64" version="1.1" xmlns="http://www.w3.org/2000/svg" xmlns:xlink="http://www.w3.org/1999/xlink">
    <!-- Generator: Sketch 46.2 (44496) - http://www.bohemiancoding.com/sketch -->
    <title>Shape</title>
    <desc>Created with Sketch.</desc>
    <defs></defs>
    <g id="Page-1" stroke="none" stroke-width="1" fill="none" fill-rule="evenodd">
        <g id="factory" fill-rule="nonzero" fill="#FFFFFF">
            <path d="M11,0 L3,0 C1.34314575,0 -3.55271368e-15,1.34314575 -3.55271368e-15,3 L-3.55271368e-15,61 C-3.55271368e-15,62.6568542 1.34314575,64 3,64 L53,64 C54.6568542,64 56,62.6568542 56,61 L56,18.89 C55.9957645,17.7379695 55.2983773,16.7017853 54.2327053,16.2641376 C53.1670333,15.82649 51.9426834,16.0734598 51.13,16.89 L42,26 L42,18.89 C41.9957645,17.7379695 41.2983773,16.7017853 40.2327053,16.2641376 C39.1670333,15.82649 37.9426834,16.0734598 37.13,16.89 L28,26 L28,18.89 C27.9957645,17.7379695 27.2983773,16.7017853 26.2327053,16.2641376 C25.1670333,15.82649 23.9426834,16.0734598 23.13,16.89 L14,26 L14,3 C14,1.34314575 12.6568542,0 11,0 Z M37,37 C37,35.8954305 37.8954305,35 39,35 L43,35 C44.1045695,35 45,35.8954305 45,37 L45,41 C45,42.1045695 44.1045695,43 43,43 L39,43 C37.8954305,43 37,42.1045695 37,41 L37,37 Z M37,50 C37,48.8954305 37.8954305,48 39,48 L43,48 C44.1045695,48 45,48.8954305 45,50 L45,54 C45,55.1045695 44.1045695,56 43,56 L39,56 C37.8954305,56 37,55.1045695 37,54 L37,50 Z M24,37 C24,35.8954305 24.8954305,35 26,35 L30,35 C31.1045695,35 32,35.8954305 32,37 L32,41 C32,42.1045695 31.1045695,43 30,43 L26,43 C24.8954305,43 24,42.1045695 24,41 L24,37 Z M24,50 C24,48.8954305 24.8954305,48 26,48 L30,48 C31.1045695,48 32,48.8954305 32,50 L32,54 C32,55.1045695 31.1045695,56 30,56 L26,56 C24.8954305,56 24,55.1045695 24,54 L24,50 Z M19,54 C19,55.1045695 18.1045695,56 17,56 L13,56 C11.8954305,56 11,55.1045695 11,54 L11,50 C11,48.8954305 11.8954305,48 13,48 L17,48 C18.1045695,48 19,48.8954305 19,50 L19,54 Z M17,35 C18.1045695,35 19,35.8954305 19,37 L19,41 C19,42.1045695 18.1045695,43 17,43 L13,43 C11.8954305,43 11,42.1045695 11,41 L11,37 C11,35.8954305 11.8954305,35 13,35 L17,35 Z" id="Shape"></path>
        </g>
    </g>
</svg>