<svg fill="#FFFFFF" xmlns="http://www.w3.org/2000/svg" xmlns:xlink="http://www.w3.org/1999/xlink" version="1.1" x="0px" y="0px" viewBox="0 0 100 100" enable-background="new 0 0 100 100" xml:space="preserve"><path d="M63.3,91.5c-0.5,0-1-0.3-1.3-0.7c-0.4-0.7-0.2-1.6,0.5-2.1c0.1,0,6.8-4.2,11.8-11.4c6.6-9.4,7.2-19.4,1.9-29.6  C66.5,29.1,50.9,17.3,44.7,13c0.5,6-0.3,18.8-13.8,28.8C21,49.3,19.7,60.1,20.4,67.8c0.6,7.1,4.1,13.3,9.5,17.1  c3.4,2.4,7.2,3.6,11.1,3.6c0.8,0,1.5,0.7,1.5,1.5s-0.7,1.5-1.5,1.5c-4.6,0-8.9-1.4-12.8-4.2C22,83,18,76,17.4,68  c-0.7-8.4,0.7-20.3,11.7-28.5c16.5-12.4,12.2-28.9,12.2-29.1c-0.2-0.6,0-1.2,0.5-1.6c0.5-0.4,1.1-0.4,1.7-0.1  c0.9,0.5,22.6,13.2,35.4,37.6C93,73.3,64.4,91.1,64.1,91.3C63.9,91.4,63.6,91.5,63.3,91.5z"></path><path d="M41.1,78.6c-0.4,0-0.8-0.2-1.1-0.4L39.9,78c-4.4-3.6-13.7-13.5-4.5-27.4c0.4-0.5,1-0.8,1.6-0.6c0.6,0.2,1.1,0.7,1.1,1.3  c0,0.1,0.5,5.3,3.2,7.6c0.9,0.8,2,1.1,3.3,1c2.6-0.2,5.4-3.5,6.7-7.9c1.2-4.2,1.2-9.7-2.6-12.7c-0.6-0.4-0.7-1.2-0.4-1.9  c0.3-0.6,1-1,1.7-0.8c6.7,1.9,12.2,7.5,14.6,15.2c2.9,9,1.1,18.8-4.9,26.2c-0.5,0.6-1.5,0.7-2.1,0.2c-0.6-0.5-0.7-1.5-0.2-2.1  c5.3-6.6,6.9-15.3,4.3-23.4c-1.5-4.6-4.2-8.4-7.6-10.9c1.3,3.5,1,7.6,0,10.9c-1.7,5.8-5.3,9.7-9.3,10.1c-2.1,0.2-3.9-0.4-5.5-1.7  c-1.7-1.5-2.8-3.6-3.4-5.6c-4.3,9.7,1.6,16.6,5.8,20c0.3,0.2,0.4,0.3,0.6,0.6c0.5,0.7,0.3,1.6-0.4,2.1  C41.7,78.5,41.4,78.6,41.1,78.6z"></path></svg>