<svg xmlns="http://www.w3.org/2000/svg" xmlns:xlink="http://www.w3.org/1999/xlink" version="1.1" x="0px" y="0px" viewBox="0 0 100 125" enable-background="new 0 0 100 100" xml:space="preserve"><path d="M52.716,58.111L66.478,6.703l-3.097-0.829L49.655,57.146c-2.193,0.178-3.923,1.994-3.923,4.232  c0,2.356,1.911,4.269,4.269,4.269s4.267-1.912,4.267-4.269C54.268,60.06,53.655,58.895,52.716,58.111z"/><path d="M82.701,66.222l0.29-2.387l-23.174-2.816c-0.002-0.796-0.105-1.566-0.287-2.308l21.834-8.278l-0.852-2.249l-21.83,8.275  c-0.365-0.691-0.814-1.33-1.328-1.911L72.84,37.067l-1.8-1.594L55.56,52.947c-0.088-0.06-0.18-0.114-0.27-0.171l-1.123,4.194  c1.17,1.106,1.904,2.67,1.904,4.407c0,3.354-2.718,6.071-6.07,6.071c-3.354,0-6.072-2.718-6.072-6.071  c0-2.931,2.078-5.377,4.842-5.945l1.127-4.208c-0.359,0.005-0.713,0.027-1.061,0.068l-5.586-22.662l-2.335,0.576l5.586,22.665  c-0.732,0.279-1.427,0.639-2.063,1.076l-15.48-17.475l-1.8,1.594l15.485,17.481c-0.514,0.581-0.963,1.22-1.328,1.911l-21.831-8.275  l-0.852,2.249l21.836,8.278c-0.181,0.742-0.287,1.512-0.289,2.308l-23.172,2.816l0.29,2.387l23.181-2.816  c0.189,0.765,0.463,1.494,0.82,2.177L22.093,78.838l1.367,1.979l19.211-13.261c0.518,0.58,1.096,1.102,1.736,1.546L33.554,89.77  l2.129,1.118l10.855-20.671c0.717,0.271,1.473,0.463,2.26,0.559v23.351h2.404V70.775c0.786-0.096,1.543-0.288,2.26-0.559  l10.854,20.671l2.129-1.118L55.593,69.103c0.64-0.444,1.219-0.966,1.736-1.546l19.21,13.261l1.367-1.979L58.7,65.582  c0.356-0.683,0.629-1.412,0.818-2.177L82.701,66.222z"/></svg>