<svg fill="#FFFFFF" xmlns="http://www.w3.org/2000/svg" xmlns:xlink="http://www.w3.org/1999/xlink" version="1.1" x="0px" y="0px" viewBox="0 0 100 100" enable-background="new 0 0 100 100" xml:space="preserve"><circle fill="#FFFFFF" cx="36.48" cy="36.48" r="3.687"></circle><circle fill="#FFFFFF" cx="9.441" cy="36.48" r="3.688"></circle><circle fill="#FFFFFF" cx="63.52" cy="36.48" r="3.688"></circle><circle fill="#FFFFFF" cx="90.559" cy="36.48" r="3.688"></circle><circle fill="#FFFFFF" cx="36.48" cy="9.441" r="3.687"></circle><circle fill="#FFFFFF" cx="9.441" cy="9.441" r="3.688"></circle><circle fill="#FFFFFF" cx="63.52" cy="9.441" r="3.688"></circle><circle fill="#FFFFFF" cx="90.559" cy="9.441" r="3.688"></circle><circle fill="#FFFFFF" cx="36.48" cy="90.559" r="3.687"></circle><circle fill="#FFFFFF" cx="9.441" cy="90.559" r="3.688"></circle><circle fill="#FFFFFF" cx="63.52" cy="90.559" r="3.688"></circle><circle fill="#FFFFFF" cx="90.559" cy="90.559" r="3.688"></circle><circle fill="#FFFFFF" cx="63.52" cy="63.52" r="3.688"></circle><circle fill="#FFFFFF" cx="90.559" cy="63.52" r="3.688"></circle><circle fill="#FFFFFF" cx="36.48" cy="63.52" r="3.687"></circle><circle fill="#FFFFFF" cx="9.441" cy="63.52" r="3.688"></circle><path fill="#FFFFFF" d="M90.559,91.313H9.441c-0.305,0-0.58-0.184-0.697-0.465c-0.116-0.281-0.052-0.606,0.164-0.822l79.83-79.83  H9.441V8.688h81.117c0.305,0,0.58,0.184,0.697,0.465c0.116,0.281,0.052,0.606-0.164,0.822l-79.83,79.83h79.297V91.313z"></path></svg>