<?xml version="1.0" encoding="UTF-8"?>
<svg width="82px" height="86px" viewBox="0 0 82 86" version="1.1" xmlns="http://www.w3.org/2000/svg" xmlns:xlink="http://www.w3.org/1999/xlink">
    <!-- Generator: Sketch 46.2 (44496) - http://www.bohemiancoding.com/sketch -->
    <title>noun_893874</title>
    <desc>Created with Sketch.</desc>
    <defs></defs>
    <g id="Page-1" stroke="none" stroke-width="1" fill="none" fill-rule="evenodd">
        <g id="noun_893874" fill-rule="nonzero" fill="#FFFFFF">
            <path d="M81.937,55.831 L80.011,43 L81.936,30.169 C81.983,29.857 81.88,29.543 81.659,29.318 L72.551,20.081 L66.566,8.571 C66.421,8.293 66.154,8.098 65.845,8.046 L53.053,5.893 L41.446,0.105 C41.165,-0.035 40.835,-0.035 40.553,0.105 L28.946,5.894 L16.155,8.047 C15.845,8.099 15.578,8.294 15.434,8.572 L9.449,20.082 L0.34,29.318 C0.119,29.542 0.016,29.857 0.063,30.169 L1.989,43 L0.063,55.831 C0.016,56.143 0.119,56.457 0.34,56.682 L9.448,65.919 L15.433,77.429 C15.578,77.707 15.845,77.902 16.154,77.954 L28.946,80.107 L40.553,85.896 C40.694,85.965 40.847,86 41,86 C41.153,86 41.306,85.965 41.446,85.895 L53.053,80.106 L65.844,77.953 C66.154,77.901 66.421,77.706 66.565,77.428 L72.55,65.918 L81.658,56.681 C81.881,56.458 81.983,56.143 81.937,55.831 Z M79.885,55.633 L71.022,64.621 C70.952,64.692 70.893,64.773 70.847,64.862 L65.022,76.063 L52.575,78.158 C52.477,78.175 52.383,78.205 52.295,78.249 L41,83.882 L29.706,78.25 C29.618,78.206 29.523,78.175 29.426,78.159 L16.979,76.064 L11.154,64.863 C11.108,64.775 11.049,64.694 10.979,64.622 L2.116,55.634 L3.99,43.149 C4.005,43.05 4.005,42.951 3.99,42.852 L2.116,30.367 L10.979,21.379 C11.049,21.308 11.108,21.227 11.154,21.138 L16.979,9.937 L29.426,7.842 C29.524,7.825 29.618,7.795 29.706,7.751 L41,2.118 L52.294,7.751 C52.382,7.795 52.477,7.826 52.574,7.842 L65.021,9.937 L70.846,21.138 C70.892,21.226 70.951,21.307 71.021,21.379 L79.884,30.367 L78.01,42.852 C77.995,42.951 77.995,43.05 78.01,43.149 L79.885,55.633 Z" id="Shape"></path>
            <path d="M77.021,30.79 L68.636,22.926 L63.736,12.529 C63.59,12.22 63.297,12.007 62.959,11.964 L51.559,10.501 L41.482,4.973 C41.182,4.809 40.82,4.809 40.52,4.973 L30.442,10.5 L19.042,11.963 C18.704,12.006 18.411,12.219 18.265,12.528 L13.364,22.925 L4.979,30.789 C4.729,31.023 4.617,31.369 4.681,31.706 L6.831,43 L4.682,54.294 C4.618,54.63 4.731,54.976 4.98,55.211 L13.365,63.075 L18.265,73.472 C18.411,73.781 18.704,73.994 19.042,74.037 L30.442,75.5 L40.519,81.028 C40.669,81.11 40.834,81.151 41,81.151 C41.166,81.151 41.331,81.11 41.481,81.028 L51.558,75.5 L62.958,74.037 C63.296,73.994 63.589,73.781 63.735,73.472 L68.636,63.075 L77.021,55.211 C77.271,54.977 77.383,54.631 77.319,54.294 L75.169,43 L77.318,31.706 C77.383,31.37 77.271,31.024 77.021,30.79 Z M50.622,72.613 L43.362,70.848 C47.761,70.478 51.875,69.092 55.462,66.916 L50.622,72.613 Z M26.539,66.916 C30.125,69.093 34.24,70.478 38.638,70.848 L31.378,72.613 L26.539,66.916 Z M31.378,13.387 L38.638,15.152 C34.239,15.522 30.125,16.908 26.538,19.084 L31.378,13.387 Z M55.461,19.084 C51.875,16.907 47.76,15.522 43.362,15.152 L50.622,13.387 L55.461,19.084 Z M66.955,43 C66.955,57.312 55.311,68.955 41,68.955 C26.689,68.955 15.045,57.312 15.045,43 C15.045,28.688 26.688,17.045 41,17.045 C55.312,17.045 66.955,28.688 66.955,43 Z M15.241,32.141 L15.815,24.701 L22.762,21.841 C19.526,24.634 16.93,28.149 15.241,32.141 Z M13.786,49.37 L9.871,43 L13.786,36.631 C13.307,38.678 13.045,40.809 13.045,43 C13.045,45.192 13.307,47.322 13.786,49.37 Z M22.761,64.159 L15.815,61.299 L15.241,53.859 C16.93,57.851 19.525,61.366 22.761,64.159 Z M66.759,53.859 L66.185,61.299 L59.238,64.159 C62.474,61.366 65.07,57.851 66.759,53.859 Z M68.214,36.63 L72.129,43 L68.214,49.369 C68.693,47.322 68.955,45.191 68.955,43 C68.955,40.808 68.693,38.678 68.214,36.63 Z M59.239,21.841 L66.185,24.701 L66.759,32.141 C65.07,28.149 62.475,24.634 59.239,21.841 Z M66.255,22.567 L58.24,19.267 L52.621,12.652 L62.159,13.876 L66.255,22.567 Z M41,6.989 L49.436,11.617 L41,13.667 L32.564,11.617 L41,6.989 Z M19.841,13.876 L29.379,12.652 L23.76,19.266 L15.746,22.566 L19.841,13.876 Z M6.749,31.872 L13.764,25.294 L13.097,33.933 L8.55,41.331 L6.749,31.872 Z M6.749,54.128 L8.549,44.669 L13.096,52.067 L13.763,60.706 L6.749,54.128 Z M15.745,63.433 L23.76,66.733 L29.379,73.348 L19.841,72.124 L15.745,63.433 Z M41,79.011 L32.564,74.383 L41,72.333 L49.436,74.383 L41,79.011 Z M62.159,72.124 L52.621,73.348 L58.24,66.734 L66.254,63.434 L62.159,72.124 Z M75.251,54.128 L68.236,60.706 L68.903,52.067 L73.45,44.669 L75.251,54.128 Z M73.451,41.331 L68.904,33.933 L68.237,25.294 L75.252,31.872 L73.451,41.331 Z" id="Shape"></path>
            <path d="M53.588,38.909 L54.943,33.827 C55.021,33.535 54.963,33.225 54.786,32.981 C54.609,32.737 54.331,32.586 54.03,32.57 L48.778,32.292 L46.892,27.381 C46.784,27.099 46.554,26.881 46.267,26.788 C45.981,26.696 45.667,26.736 45.413,26.9 L41,29.767 L36.586,26.902 C36.333,26.738 36.02,26.698 35.732,26.79 C35.445,26.883 35.216,27.101 35.107,27.383 L33.221,32.293 L27.969,32.572 C27.668,32.588 27.39,32.739 27.213,32.983 C27.036,33.227 26.978,33.537 27.056,33.829 L28.411,38.911 L24.328,42.225 C24.094,42.415 23.958,42.7 23.958,43.001 C23.958,43.302 24.094,43.587 24.328,43.777 L28.411,47.091 L27.056,52.173 C26.978,52.465 27.036,52.775 27.213,53.019 C27.39,53.263 27.668,53.414 27.969,53.43 L33.221,53.708 L35.107,58.619 C35.215,58.901 35.445,59.119 35.732,59.212 C35.833,59.245 35.937,59.261 36.041,59.261 C36.232,59.261 36.421,59.206 36.585,59.1 L41,56.233 L45.414,59.098 C45.668,59.263 45.981,59.304 46.268,59.21 C46.555,59.117 46.784,58.899 46.893,58.617 L48.779,53.707 L54.031,53.428 C54.332,53.412 54.61,53.261 54.787,53.017 C54.964,52.773 55.022,52.463 54.944,52.171 L53.589,47.089 L57.672,43.775 C57.906,43.585 58.042,43.3 58.042,42.999 C58.042,42.698 57.906,42.413 57.672,42.223 L53.588,38.909 Z M51.824,45.946 C51.518,46.195 51.386,46.599 51.488,46.98 L52.693,51.497 L48.023,51.745 C47.628,51.766 47.284,52.016 47.142,52.385 L45.466,56.748 L41.544,54.202 C41.213,53.987 40.786,53.987 40.455,54.202 L36.532,56.749 L34.856,52.385 C34.714,52.016 34.37,51.766 33.975,51.745 L29.306,51.497 L30.511,46.981 C30.613,46.6 30.481,46.195 30.175,45.947 L26.546,43 L30.175,40.054 C30.481,39.805 30.613,39.401 30.511,39.02 L29.306,34.503 L33.976,34.255 C34.371,34.234 34.715,33.984 34.857,33.615 L36.533,29.252 L40.455,31.798 C40.786,32.013 41.213,32.013 41.544,31.798 L45.467,29.251 L47.143,33.615 C47.285,33.984 47.629,34.234 48.024,34.255 L52.693,34.503 L51.488,39.019 C51.386,39.4 51.518,39.805 51.824,40.053 L55.454,43 L51.824,45.946 Z" id="Shape"></path>
            <circle id="Oval" cx="41" cy="43" r="7"></circle>
        </g>
    </g>
</svg>