<svg fill="#FFFFFF" xmlns="http://www.w3.org/2000/svg" xmlns:xlink="http://www.w3.org/1999/xlink" version="1.1" x="0px" y="0px" viewBox="0 0 100 100" enable-background="new 0 0 100 100" xml:space="preserve"><circle fill="#FFFFFF" cx="36.48" cy="63.52" r="3.687"></circle><circle fill="#FFFFFF" cx="36.48" cy="90.559" r="3.688"></circle><circle fill="#FFFFFF" cx="36.48" cy="36.48" r="3.688"></circle><circle fill="#FFFFFF" cx="36.48" cy="9.441" r="3.688"></circle><circle fill="#FFFFFF" cx="9.441" cy="63.52" r="3.687"></circle><circle fill="#FFFFFF" cx="9.441" cy="90.559" r="3.688"></circle><circle fill="#FFFFFF" cx="9.441" cy="36.48" r="3.688"></circle><circle fill="#FFFFFF" cx="9.441" cy="9.441" r="3.688"></circle><circle fill="#FFFFFF" cx="90.559" cy="63.52" r="3.687"></circle><circle fill="#FFFFFF" cx="90.559" cy="90.559" r="3.688"></circle><circle fill="#FFFFFF" cx="90.559" cy="36.48" r="3.688"></circle><circle fill="#FFFFFF" cx="90.559" cy="9.441" r="3.688"></circle><circle fill="#FFFFFF" cx="63.52" cy="36.48" r="3.688"></circle><circle fill="#FFFFFF" cx="63.52" cy="9.441" r="3.688"></circle><circle fill="#FFFFFF" cx="63.52" cy="63.52" r="3.687"></circle><circle fill="#FFFFFF" cx="63.52" cy="90.559" r="3.688"></circle><path fill="#FFFFFF" d="M90.559,91.313c-0.196,0-0.389-0.076-0.534-0.221l-79.83-79.83v79.297H8.687V9.441  c0-0.305,0.184-0.58,0.465-0.697c0.282-0.117,0.606-0.051,0.822,0.164l79.83,79.83V9.441h1.508v81.117  c0,0.305-0.184,0.58-0.465,0.697C90.754,91.294,90.656,91.313,90.559,91.313z"></path></svg>