<svg xmlns="http://www.w3.org/2000/svg" xmlns:xlink="http://www.w3.org/1999/xlink" version="1.1" x="0px" y="0px" viewBox="0 0 100 125" style="enable-background:new 0 0 100 100;" xml:space="preserve"><g><path d="M35.3,90.9C35.5,91,35.8,91,36,91c0.7,0,1.3-0.4,1.7-1l33-55c0.4-0.6,0.4-1.4,0-2c-0.4-0.6-1-1-1.7-1H56.4L61,11.4   c0.1-0.6,0-1.2-0.4-1.7S59.6,9,59,9H31c-1.1,0-2,0.9-2,2v41c0,1.1,0.9,2,2,2h8.6L34,88.7C33.9,89.6,34.4,90.5,35.3,90.9z M44,52.3   c0.1-0.6-0.1-1.2-0.5-1.6S42.6,50,42,50h-9V13h23.5l-4.4,20.1c0,0.2-0.1,0.4,0,0.6c0,0.1,0,0.2,0,0.3c0,1.1,0.9,2,2,2h11.5L39.6,79   L44,52.3z"/></g></svg>