<svg fill="#FFFFFF" xmlns="http://www.w3.org/2000/svg" xmlns:xlink="http://www.w3.org/1999/xlink" version="1.1" x="0px" y="0px" viewBox="0 0 100 100" style="enable-background:new 0 0 100 100;" xml:space="preserve"><g><polygon points="29.6590576,79.00177 16.6931152,70.0341797 13.4456787,72.0259399 26.4111328,80.9931641  "></polygon><polygon points="13.5337524,52.7076416 10.2861328,54.6992188 12.4002686,70.321106 15.6470337,68.329834  "></polygon><path d="M40.5068359,54.2583008l-13.8652344-9.5888672l-11.2441406,6.8955078l2.2597656,16.7050781l13.8652344,9.5888672   l11.2441406-6.8955078L40.5068359,54.2583008z M37.0429688,64.0527344   c-0.2373047,2.3012695-1.3212891,4.152832-3.0537109,5.2148438c-0.9824219,0.6025391-2.0888672,0.8876953-3.2304688,0.8876953   c-0.0133057,0-0.0268555-0.0030518-0.0401611-0.0031128c-0.020752,0.0012817-0.0405273,0.0084839-0.0614014,0.0084839   c-0.0286865,0-0.0568237-0.0174561-0.0856934-0.0199585c-2.8554077-0.0768433-5.9058838-1.901062-7.8078613-5.0015259   c-1.2851562-2.0966797-1.8681641-4.4628906-1.6425781-6.6635742c0.0981445-0.9517822,0.3487549-1.8206787,0.7225342-2.5945435   c0.0022583-0.0050659,0.0050659-0.0094604,0.0073853-0.0145264c0.5299683-1.0905762,1.312439-1.9857788,2.3237915-2.6057739   c3.4853516-2.1376953,8.5185547-0.2832031,11.2255859,4.128418C36.6855469,59.4858398,37.2685547,61.8520508,37.0429688,64.0527344   z"></path><path d="M25.2197266,54.9658203c-0.2583008,0.1583252-0.4859619,0.3563843-0.701355,0.5680542   c2.3745117,0.6035767,4.6246338,2.3101807,6.132019,4.7688599c1.5098267,2.461792,2.0097656,5.2443848,1.4672241,7.6362915   c0.2859497-0.0958862,0.56427-0.2156372,0.8267212-0.3765259c1.1884766-0.7285156,1.9375-2.0478516,2.1083984-3.7143555   c0.1816406-1.7666016-0.2998047-3.6889648-1.3574219-5.4130859C31.5654297,54.9624023,27.7646484,53.4052734,25.2197266,54.9658203   z"></path></g><g><path d="M54.5869141,30.3803711c-2.80896-0.6737061-5.1306152-2.2884521-6.4384155-4.3638306   c-0.1361084,0.2722778-0.2463989,0.555603-0.3174438,0.8526001c-0.6953125,2.9023438,1.9609375,6.0356445,5.9228516,6.9853516   c1.9677734,0.4731445,3.9443359,0.3349609,5.5673828-0.3847656c1.5322266-0.6791992,2.5546875-1.7998047,2.8789062-3.1552734   c0.0703125-0.293396,0.0975952-0.5891724,0.1015015-0.8848267c-1.4074707,0.8361206-3.1263428,1.2817993-4.9511108,1.2817993   C56.4462891,30.7114258,55.5166016,30.6030273,54.5869141,30.3803711z"></path><polygon points="58.4623413,9.9255981 42.953125,12.7524414 42.0656128,16.456665 57.5738525,13.6295166  "></polygon><polygon points="59.519104,14.0965576 72.0599976,23.6482544 72.9482422,19.9438477 60.4077148,10.3919067  "></polygon><path d="M58.1396484,15.5595703l-16.5839844,3.0229492L38.4804688,31.409668l13.4111328,10.2143555l16.5839844-3.0229492   l3.0751953-12.8271484L58.1396484,15.5595703z M64.1455078,30.7802734   c-0.4736328,1.9755859-1.8984375,3.5800781-4.0136719,4.5175781c-1.2441406,0.5517578-2.6435547,0.831543-4.0927734,0.831543   c-0.90625,0-1.8320312-0.109375-2.7519531-0.3295898c-5.0332031-1.2070312-8.3535156-5.4223633-7.4013672-9.3964844   c0.276123-1.1516113,0.8838501-2.1715088,1.7546997-3.0123291c0.0067139-0.0061646,0.012085-0.0129395,0.0189819-0.0189819   c0.6194458-0.5933838,1.3669434-1.0993042,2.2399902-1.4862671c2.0224609-0.8959961,4.4550781-1.0742188,6.8447266-0.5019531   c3.5285034,0.8461914,6.2081909,3.1721802,7.1711426,5.8557739c0.020813,0.0462036,0.0321655,0.0925293,0.0455933,0.1408081   C64.3301392,28.4830322,64.4185791,29.640625,64.1455078,30.7802734z"></path></g><g><path d="M67.5994263,72.7920532c0.6036987-2.3746338,2.3100586-4.6245117,4.7687378-6.131897   c2.4609375-1.5089111,5.2441406-2.0100708,7.6363525-1.4677124c-0.0958862-0.2861328-0.2156372-0.5646362-0.3765869-0.8272095   c-0.8701172-1.4194336-2.5302734-2.1518555-4.4306641-2.1518555c-1.5058594,0-3.1621094,0.4594727-4.6972656,1.4008789   c-1.7236328,1.0571289-3.0253906,2.5522461-3.6640625,4.2089844c-0.6025391,1.5634766-0.5332031,3.0791016,0.1953125,4.2670898   C67.1896973,72.3487549,67.3876953,72.5765991,67.5994263,72.7920532z"></path><path d="M63.6298828,81.9125977l16.7050781-2.2602539l9.5888672-13.8642578l-6.8955078-11.2451172l-16.7050781,2.2602539   L56.734375,70.6674805L63.6298828,81.9125977z M64.9697266,67.1035156   c0.7958984-2.0639648,2.3886719-3.9086914,4.4853516-5.1943359c4.4101562-2.7045898,9.7392578-2.0742188,11.8779297,1.4106445   c0.6117554,0.9981689,0.8861084,2.1248779,0.8769531,3.2863159c0.0025635,0.0523071,0.0059814,0.1021118,0.0001831,0.1547241   c-0.0859985,2.8493652-1.9141846,5.8893433-5.007019,7.7855225c-1.7998047,1.1040039-3.7998047,1.6899414-5.7216797,1.6899414   c-0.3164062,0-0.6308594-0.0161133-0.9414062-0.0478516c-0.9503784-0.0978394-1.8182983-0.3478394-2.5913696-0.7207031   c-0.0067749-0.0028687-0.0124512-0.0067139-0.019104-0.0097656c-1.0895386-0.5297852-1.9840698-1.3117676-2.6033936-2.3222656   C64.2636719,71.4042969,64.1376953,69.2617188,64.9697266,67.1035156z"></path><polygon points="82.3862305,84.90979 80.3942261,81.6621094 64.772644,83.776123 66.7636719,87.0234375  "></polygon><polygon points="91.0670166,67.651062 82.0994873,80.6165161 84.0914917,83.8641968 93.0585938,70.8989258  "></polygon></g></svg>