<?xml version="1.0" encoding="UTF-8"?>
<svg width="132px" height="132px" viewBox="0 0 132 132" version="1.1" xmlns="http://www.w3.org/2000/svg" xmlns:xlink="http://www.w3.org/1999/xlink">
    <!-- Generator: Sketch 47 (45396) - http://www.bohemiancoding.com/sketch -->
    <title>Group</title>
    <desc>Created with Sketch.</desc>
    <defs></defs>
    <g id="Page-1" stroke="none" stroke-width="1" fill="none" fill-rule="evenodd">
        <g id="Group" fill-rule="nonzero" fill="#FFFFFF">
            <g id="resource">
                <path d="M1.78773936,7.19693484 L7.19693484,7.19693484 L7.19693484,1.78773936 C7.19693484,-0.594109714 10.8030652,-0.597715845 10.8030652,1.78773936 L10.8030652,7.19693484 L16.2122606,7.19693484 C18.5941097,7.19693484 18.5977158,10.8030652 16.2122606,10.8030652 L10.8030652,10.8030652 L10.8030652,16.2122606 C10.8030652,18.5941097 7.19693484,18.5977158 7.19693484,16.2122606 L7.19693484,10.8030652 L1.78773936,10.8030652 C-0.594109714,10.8030652 -0.597715845,7.19693484 1.78773936,7.19693484 Z" id="Shape"></path>
            </g>
            <g id="resource" transform="translate(114.000000, 0.000000)">
                <path d="M1.78773936,7.19693484 L7.19693484,7.19693484 L7.19693484,1.78773936 C7.19693484,-0.594109714 10.8030652,-0.597715845 10.8030652,1.78773936 L10.8030652,7.19693484 L16.2122606,7.19693484 C18.5941097,7.19693484 18.5977158,10.8030652 16.2122606,10.8030652 L10.8030652,10.8030652 L10.8030652,16.2122606 C10.8030652,18.5941097 7.19693484,18.5977158 7.19693484,16.2122606 L7.19693484,10.8030652 L1.78773936,10.8030652 C-0.594109714,10.8030652 -0.597715845,7.19693484 1.78773936,7.19693484 Z" id="Shape"></path>
            </g>
            <g id="resource" transform="translate(0.000000, 114.000000)">
                <path d="M1.78773936,7.19693484 L7.19693484,7.19693484 L7.19693484,1.78773936 C7.19693484,-0.594109714 10.8030652,-0.597715845 10.8030652,1.78773936 L10.8030652,7.19693484 L16.2122606,7.19693484 C18.5941097,7.19693484 18.5977158,10.8030652 16.2122606,10.8030652 L10.8030652,10.8030652 L10.8030652,16.2122606 C10.8030652,18.5941097 7.19693484,18.5977158 7.19693484,16.2122606 L7.19693484,10.8030652 L1.78773936,10.8030652 C-0.594109714,10.8030652 -0.597715845,7.19693484 1.78773936,7.19693484 Z" id="Shape"></path>
            </g>
            <g id="resource" transform="translate(114.000000, 114.000000)">
                <path d="M1.78773936,7.19693484 L7.19693484,7.19693484 L7.19693484,1.78773936 C7.19693484,-0.594109714 10.8030652,-0.597715845 10.8030652,1.78773936 L10.8030652,7.19693484 L16.2122606,7.19693484 C18.5941097,7.19693484 18.5977158,10.8030652 16.2122606,10.8030652 L10.8030652,10.8030652 L10.8030652,16.2122606 C10.8030652,18.5941097 7.19693484,18.5977158 7.19693484,16.2122606 L7.19693484,10.8030652 L1.78773936,10.8030652 C-0.594109714,10.8030652 -0.597715845,7.19693484 1.78773936,7.19693484 Z" id="Shape"></path>
            </g>
        </g>
    </g>
</svg>