<?xml version="1.0" encoding="UTF-8"?>
<svg width="80px" height="36px" viewBox="0 0 80 36" version="1.1" xmlns="http://www.w3.org/2000/svg" xmlns:xlink="http://www.w3.org/1999/xlink">
    <!-- Generator: Sketch 47 (45396) - http://www.bohemiancoding.com/sketch -->
    <title>resource</title>
    <desc>Created with Sketch.</desc>
    <defs></defs>
    <g id="Page-1" stroke="none" stroke-width="1" fill="none" fill-rule="evenodd">
        <g id="resource" fill-rule="nonzero" fill="#FFFFFF">
            <path d="M44,5.992 L41,5.992 L41,8.992 C41,10.315 39,10.313 39,8.992 L39,5.992 L36,5.992 C34.677,5.992 34.679,3.992 36,3.992 L39,3.992 L39,0.992 C39,-0.331 41,-0.329 41,0.992 L41,3.992 L44,3.992 C45.323,3.992 45.321,5.992 44,5.992 Z" id="Shape"></path>
            <path d="M9,31.992 L6,31.992 L6,34.992 C6,36.315 4,36.313 4,34.992 L4,31.992 L1,31.992 C-0.323,31.992 -0.321,29.992 1,29.992 L4,29.992 L4,26.992 C4,25.669 6,25.671 6,26.992 L6,29.992 L9,29.992 C10.323,29.992 10.321,31.992 9,31.992 Z" id="Shape"></path>
            <path d="M71,29.992 L74,29.992 L74,26.992 C74,25.671 76,25.669 76,26.992 L76,29.992 L79,29.992 C80.321,29.992 80.323,31.992 79,31.992 L76,31.992 L76,34.992 C76,36.313 74,36.315 74,34.992 L74,31.992 L71,31.992 C69.679,31.992 69.677,29.992 71,29.992 Z" id="Shape"></path>
        </g>
    </g>
</svg>