<svg fill="#FFFFFF" xmlns="http://www.w3.org/2000/svg" xmlns:xlink="http://www.w3.org/1999/xlink" version="1.1" x="0px" y="0px" viewBox="0 0 100 100" enable-background="new 0 0 100 100" xml:space="preserve"><path fill="#FFFFFF" d="M62.849,49.992H37.151c-2.2,0-3.65-2.29-2.715-4.277l6.118-13c0.491-1.046,1.557-1.723,2.715-1.723H56.73  c1.158,0,2.224,0.677,2.715,1.724l6.118,12.999C66.499,47.704,65.045,49.992,62.849,49.992z M43.27,32.992  c-0.386,0-0.741,0.225-0.904,0.573l-6.118,13.001c-0.312,0.66,0.166,1.426,0.904,1.426h25.697c0.739,0,1.216-0.766,0.904-1.426  l-6.118-13c-0.163-0.349-0.519-0.574-0.904-0.574H43.27z"></path><path fill="#FFFFFF" d="M45.998,70.992H20.301c-2.2,0-3.65-2.29-2.715-4.277l6.117-13c0.493-1.046,1.559-1.723,2.715-1.723H39.88  c1.156,0,2.222,0.676,2.714,1.723l6.119,13C49.649,68.704,48.195,70.992,45.998,70.992z M26.418,53.992  c-0.386,0-0.74,0.226-0.905,0.574l-6.116,13c-0.312,0.66,0.166,1.426,0.904,1.426h25.697c0.739,0,1.216-0.766,0.904-1.426l-6.118-13  c-0.164-0.349-0.519-0.574-0.904-0.574H26.418z"></path><path fill="#FFFFFF" d="M79.699,70.992H54.002c-2.2,0-3.65-2.29-2.715-4.277l6.118-13c0.493-1.046,1.559-1.723,2.715-1.723h13.462  c1.156,0,2.222,0.676,2.714,1.723l6.118,13C83.35,68.704,81.896,70.992,79.699,70.992z M60.12,53.992  c-0.386,0-0.74,0.226-0.905,0.574l-6.117,13c-0.312,0.66,0.166,1.426,0.904,1.426h25.697c0.739,0,1.216-0.766,0.904-1.426l-6.117-13  c-0.164-0.349-0.519-0.574-0.904-0.574H60.12z"></path><path fill="#FFFFFF" d="M54,18.992h-3v3c0,1.323-2,1.321-2,0v-3h-3c-1.323,0-1.321-2,0-2h3v-3c0-1.323,2-1.321,2,0v3h3  C55.323,16.992,55.321,18.992,54,18.992z"></path><path fill="#FFFFFF" d="M19,44.992h-3v3c0,1.323-2,1.321-2,0v-3h-3c-1.323,0-1.321-2,0-2h3v-3c0-1.323,2-1.321,2,0v3h3  C20.323,42.992,20.321,44.992,19,44.992z"></path><path fill="#FFFFFF" d="M81,42.992h3v-3c0-1.321,2-1.323,2,0v3h3c1.321,0,1.323,2,0,2h-3v3c0,1.321-2,1.323-2,0v-3h-3  C79.679,44.992,79.677,42.992,81,42.992z"></path></svg>