<?xml version="1.0" encoding="UTF-8"?>
<svg width="58px" height="60px" viewBox="0 0 58 60" version="1.1" xmlns="http://www.w3.org/2000/svg" xmlns:xlink="http://www.w3.org/1999/xlink">
    <!-- Generator: Sketch 46.2 (44496) - http://www.bohemiancoding.com/sketch -->
    <title>sell</title>
    <desc>Created with Sketch.</desc>
    <defs></defs>
    <g id="Page-1" stroke="none" stroke-width="1" fill="none" fill-rule="evenodd">
        <g id="sell" fill-rule="nonzero" fill="#FFFFFF">
            <path d="M32.908,38.011 C32.3,37.516 31.303,37.129 29.915,36.849 L29.915,43.825 C31.175,43.689 32.142,43.346 32.813,42.798 C33.496,42.245 33.835,41.42 33.835,40.321 C33.836,39.263 33.528,38.494 32.908,38.011 Z" id="Shape"></path>
            <path d="M24.074,30.092 C24.074,31.113 24.357,31.884 24.925,32.402 C25.491,32.919 26.536,33.349 28.059,33.699 L28.059,26.74 C26.936,26.83 25.99,27.16 25.225,27.734 C24.458,28.294 24.074,29.08 24.074,30.092 Z" id="Shape"></path>
            <path d="M56.205,21.271 L31.341,0.616 C30.464,-0.113 29.267,-0.183 28.328,0.341 C27.916,0.42 27.515,0.584 27.163,0.863 L1.842,20.946 C0.676,21.87 0.478,23.57 1.397,24.74 C2.045,25.569 3.078,25.9 4.041,25.703 L4.041,60 L53.958,60 L53.958,25.988 C54.899,26.179 55.907,25.87 56.562,25.073 C57.511,23.923 57.35,22.22 56.205,21.271 Z M34.905,44.229 C33.635,45.373 31.974,46.052 29.915,46.267 L29.915,52.366 L28.058,52.366 L28.058,46.351 C26.671,46.34 25.37,46.2 24.152,45.929 C22.936,45.648 21.88,45.287 20.987,44.852 L20.987,41.517 L21.238,41.517 C21.439,41.672 21.795,41.904 22.31,42.206 C22.824,42.497 23.322,42.741 23.805,42.931 C24.351,43.144 24.986,43.346 25.711,43.535 C26.445,43.717 27.228,43.824 28.057,43.856 L28.057,36.562 C27.637,36.47 27.248,36.385 26.892,36.309 C26.535,36.216 26.204,36.13 25.9,36.038 C24.188,35.577 22.961,34.888 22.215,33.965 C21.47,33.032 21.098,31.888 21.098,30.528 C21.098,28.867 21.706,27.463 22.925,26.316 C24.152,25.17 25.863,24.503 28.057,24.312 L28.057,19.728 L29.914,19.728 L29.914,24.277 C30.976,24.3 32.06,24.436 33.173,24.681 C34.286,24.929 35.221,25.214 35.977,25.542 L35.977,28.845 L35.756,28.845 C34.969,28.326 34.147,27.872 33.285,27.479 C32.435,27.074 31.311,26.821 29.914,26.72 L29.914,33.982 C30.23,34.04 30.57,34.116 30.937,34.218 C31.303,34.307 31.625,34.381 31.899,34.437 C33.462,34.797 34.67,35.414 35.521,36.291 C36.381,37.167 36.813,38.363 36.813,39.88 C36.814,41.622 36.177,43.07 34.905,44.229 Z" id="Shape"></path>
        </g>
    </g>
</svg>