<svg fill="#FFFFFF" xmlns="http://www.w3.org/2000/svg" xmlns:xlink="http://www.w3.org/1999/xlink" version="1.1" x="0px" y="0px" viewBox="0 0 100 100" enable-background="new 0 0 100 100" xml:space="preserve"><g><path d="M65.2,54.4c-8.9,0-15.8,3.7-15.8,8.3v3.9v2.9v3.1v2.9v3.1v2.9c0,4.7,6.9,8.3,15.8,8.3S81,86.3,81,81.7v-2.6v-3.4V73v-3.4   v-2.6v-4.2C81,58,74.1,54.4,65.2,54.4z M65.2,55.7c7.9,0,14.5,3.2,14.5,7c0,3.8-6.6,7-14.5,7s-14.5-3.2-14.5-7   C50.7,58.9,57.4,55.7,65.2,55.7z M79.7,73v2.6c0,3.8-6.6,7-14.5,7s-14.5-3.2-14.5-7v-2.7c2.4,2.9,7.9,5,14.5,5S77.3,75.9,79.7,73   L79.7,73z M79.7,81.7c0,3.8-6.6,7-14.5,7s-14.5-3.2-14.5-7V79c2.4,2.9,7.9,5,14.5,5s12.1-2,14.5-5v0.1V81.7z M79.7,66.9v2.6   c0,3.8-6.6,7-14.5,7s-14.5-3.2-14.5-7v-2.9v-0.6c2.4,2.9,7.9,5,14.5,5s12.1-2,14.5-5V66.9z"></path><path d="M68,27.7c-0.3,0.1-0.6,0.4-0.5,0.8L70.9,42l-6.8,7.4c-0.2,0.3-0.2,0.7,0,0.9c0.1,0.1,0.3,0.2,0.4,0.2   c0.2,0,0.3-0.1,0.5-0.2l7-7.7c0.1-0.2,0.2-0.4,0.2-0.6l-3.5-13.9C68.7,27.8,68.3,27.6,68,27.7z"></path><path d="M44.5,70.7l-6.3,6.8L16.7,57.1l32.4-35.2l13.6,2.2c0.4,0.1,0.7-0.2,0.7-0.5c0.1-0.4-0.2-0.7-0.5-0.7l-14-2.2   c-0.2,0-0.4,0-0.6,0.2L15.3,56.7c-0.2,0.3-0.2,0.7,0,0.9l22.6,21.3c0.1,0.1,0.3,0.2,0.4,0.2c0,0,0,0,0,0c0.2,0,0.3-0.1,0.5-0.2   l6.7-7.3c0.2-0.3,0.2-0.7,0-0.9C45.2,70.4,44.8,70.4,44.5,70.7z"></path><path d="M67.1,21c-0.4,2.7-1.8,5.3-4.3,7.6c-0.8-0.7-1.8-1.1-2.9-1c-1.1,0-2.1,0.5-2.8,1.3c-0.7,0.8-1.1,1.8-1.1,2.9   c0.1,2.2,1.9,3.9,4,3.9c0.1,0,0.1,0,0.2,0c2.2-0.1,4-2,3.9-4.2c0-0.7-0.2-1.3-0.5-1.8c2.7-2.6,4.3-5.4,4.7-8.5   c0.9-5.9-2.8-10.5-3-10.7c-0.2-0.3-0.6-0.3-0.9-0.1c-0.3,0.2-0.3,0.6-0.1,0.9C64.5,11.4,67.9,15.7,67.1,21z M62.9,31.5   c0.1,1.5-1.1,2.8-2.6,2.9c-1.5,0.1-2.8-1.1-2.9-2.6c0-0.7,0.2-1.4,0.7-2c0.5-0.5,1.2-0.9,1.9-0.9c0,0,0.1,0,0.1,0   c0.7,0,1.3,0.2,1.7,0.6c-0.6,0.5-1.3,1.1-2.1,1.6c-0.3,0.2-0.4,0.6-0.2,0.9c0.1,0.2,0.3,0.3,0.5,0.3c0.1,0,0.3,0,0.4-0.1   c0.8-0.5,1.5-1.1,2.2-1.6C62.8,30.8,62.9,31.1,62.9,31.5z"></path><path d="M50.2,52.7c1.6-1.8,1.9-4.9-1-7.6l2.1-2.5c0.2-0.3,0.2-0.7-0.1-0.9c-0.3-0.2-0.7-0.2-0.9,0.1l-2.1,2.5   c-1.5-1.1-3.2-1.7-4.8-1.6c-1.3,0.1-2.4,0.6-3.2,1.5c-1.6,1.8-2.2,5.1,0.8,8.7l-5.5,6.6c-0.1-0.1-0.1-0.1-0.2-0.2   c-1.8-1.6-2.9-4.2-1.2-6.1c0.2-0.3,0.2-0.7-0.1-0.9c-0.3-0.2-0.7-0.2-0.9,0.1c-1.6,1.8-1.9,5.1,1.4,8c0.1,0.1,0.2,0.1,0.2,0.2   l-2.1,2.5c-0.2,0.3-0.2,0.7,0.1,0.9c0.1,0.1,0.3,0.1,0.4,0.1c0.2,0,0.4-0.1,0.5-0.2l2.1-2.6c1.2,0.8,2.5,1.2,3.8,1.2   c0.1,0,0.2,0,0.4,0c1.3-0.1,2.4-0.6,3.2-1.5c1.5-1.7,2.2-4.7-0.3-8.1l5.6-6.7c1.6,1.6,2.5,4,0.9,5.8c-0.2,0.3-0.2,0.7,0.1,0.9   C49.5,53,49.9,52.9,50.2,52.7z M41.2,45c0.6-0.6,1.3-1,2.3-1.1c1.2-0.1,2.6,0.4,3.8,1.3l-5.5,6.6C38.9,48.1,40.6,45.6,41.2,45z    M42.1,60c-0.6,0.6-1.3,1-2.3,1.1c-1,0.1-2.1-0.2-3.2-0.9l5.3-6.4C44.2,57.1,42.6,59.3,42.1,60z"></path></g></svg>