<svg fill="#FFFFFF" xmlns:dc="http://purl.org/dc/elements/1.1/" xmlns:cc="http://creativecommons.org/ns#" xmlns:rdf="http://www.w3.org/1999/02/22-rdf-syntax-ns#" xmlns:svg="http://www.w3.org/2000/svg" xmlns="http://www.w3.org/2000/svg" xmlns:sodipodi="http://sodipodi.sourceforge.net/DTD/sodipodi-0.dtd" xmlns:inkscape="http://www.inkscape.org/namespaces/inkscape" version="1.1" x="0px" y="0px" viewBox="0 0 100 100"><g transform="translate(0,-952.36218)"><path style="font-size:medium;font-style:normal;font-variant:normal;font-weight:normal;font-stretch:normal;text-indent:0;text-align:start;text-decoration:none;line-height:normal;letter-spacing:normal;word-spacing:normal;text-transform:none;direction:ltr;block-progression:tb;writing-mode:lr-tb;text-anchor:start;baseline-shift:baseline;opacity:1;color:#000000;fill:#FFFFFF;fill-opacity:1;stroke:none;stroke-width:2;marker:none;visibility:visible;display:inline;overflow:visible;enable-background:accumulate;font-family:Sans;-inkscape-font-specification:Sans" d="M 12.8125 12 A 1.0001 1.0001 0 0 0 12 13 L 12 45 A 1.0001 1.0001 0 0 0 12.28125 45.71875 L 53.09375 86.75 C 53.80864 87.4687 54.825956 88 56 88 C 57.226769 88 58.251425 87.4048 58.96875 86.6875 L 86.65625 58.96875 L 86.71875 58.9375 L 86.6875 58.90625 C 87.459981 58.18405 88 57.1546 88 56 C 88 54.7484 87.366365 53.73815 86.65625 53.03125 L 45.71875 12.28125 A 1.0001 1.0001 0 0 0 45 12 L 13 12 A 1.0001 1.0001 0 0 0 12.90625 12 A 1.0001 1.0001 0 0 0 12.8125 12 z M 14 14 L 44.5625 14 L 85.21875 54.46875 C 85.709521 54.95735 86 55.4218 86 56 C 86 56.5866 85.757604 57.09465 85.34375 57.46875 A 1.0001 1.0001 0 0 0 85.28125 57.5 L 57.53125 85.25 C 57.068993 85.7122 56.572483 86 56 86 C 55.43654 86 54.952104 85.7356 54.53125 85.3125 L 14 44.5625 L 14 14 z M 25 20 C 22.250421 20 20 22.25042 20 25 C 20 27.74958 22.250421 30 25 30 C 27.749579 30 30 27.74958 30 25 C 30 22.25042 27.749579 20 25 20 z M 25 22 C 26.668699 22 28 23.3313 28 25 C 28 26.6687 26.668699 28 25 28 C 23.331301 28 22 26.6687 22 25 C 22 23.3313 23.331301 22 25 22 z M 52.875 34.96875 A 1.0001 1.0001 0 0 0 52 36 L 52 39.09375 C 48.101119 39.574948 45 42.806092 45 47 C 45 49.2921 46.222115 50.91915 47.75 51.90625 C 49.277885 52.89345 51.102608 53.4008 52.6875 53.9375 C 54.328103 54.4931 55.990508 54.9969 57.15625 55.75 C 58.321992 56.5031 59 57.3454 59 59 C 59 62.4982 56.319872 65 53 65 C 50.189169 64.9999 47.586232 63.03665 46.96875 60.71875 A 1.0044998 1.0044998 0 0 0 45.03125 61.25 C 45.841071 64.290008 48.705613 66.582475 52 66.96875 L 52 70 A 1.0001 1.0001 0 1 0 54 70 L 54 66.9375 C 57.899295 66.456698 61 63.194168 61 59 C 61 56.7079 59.777884 55.0496 58.25 54.0625 C 56.722116 53.0754 54.897392 52.56805 53.3125 52.03125 C 51.671897 51.47575 50.009492 50.97185 48.84375 50.21875 C 47.678008 49.46555 47 48.6546 47 47 C 47 43.50173 49.680107 41.00003 53 41 C 55.810835 41.0001 58.41377 42.93208 59.03125 45.25 A 1.0045064 1.0045064 0 0 0 60.96875 44.71875 C 60.158927 41.678815 57.294385 39.444121 54 39.0625 L 54 36 A 1.0001 1.0001 0 0 0 52.875 34.96875 z " transform="translate(0,952.36218)"></path></g></svg>