<svg xmlns:dc="http://purl.org/dc/elements/1.1/" xmlns:inkscape="http://www.inkscape.org/namespaces/inkscape" xmlns:rdf="http://www.w3.org/1999/02/22-rdf-syntax-ns#" xmlns:cc="http://creativecommons.org/ns#" xmlns:svg="http://www.w3.org/2000/svg" xmlns:sodipodi="http://sodipodi.sourceforge.net/DTD/sodipodi-0.dtd" xmlns="http://www.w3.org/2000/svg" xmlns:xlink="http://www.w3.org/1999/xlink" version="1.1" x="0px" y="0px" viewBox="0 0 60 75" enable-background="new 0 0 60 60" xml:space="preserve"><path d="M33.908,38.011c-0.608-0.495-1.605-0.882-2.993-1.162v6.976c1.26-0.136,2.227-0.479,2.898-1.027  c0.683-0.553,1.022-1.378,1.022-2.477C34.836,39.263,34.528,38.494,33.908,38.011z"/><path d="M25.074,30.092c0,1.021,0.283,1.792,0.851,2.31c0.566,0.517,1.611,0.947,3.134,1.297v-6.959  c-1.123,0.09-2.069,0.42-2.834,0.994C25.458,28.294,25.074,29.08,25.074,30.092z"/><path d="M57.205,21.271L32.341,0.616c-0.877-0.729-2.074-0.799-3.013-0.275c-0.412,0.079-0.813,0.243-1.165,0.522  L2.842,20.946C1.676,21.87,1.478,23.57,2.397,24.74c0.648,0.829,1.681,1.16,2.644,0.963V60h49.917V25.988  c0.941,0.191,1.949-0.118,2.604-0.915C58.511,23.923,58.35,22.22,57.205,21.271z M35.905,44.229c-1.27,1.144-2.931,1.823-4.99,2.038  v6.099h-1.857v-6.015c-1.387-0.011-2.688-0.151-3.906-0.422c-1.216-0.281-2.272-0.642-3.165-1.077v-3.335h0.251  c0.201,0.155,0.557,0.387,1.072,0.689c0.514,0.291,1.012,0.535,1.495,0.725c0.546,0.213,1.181,0.415,1.906,0.604  c0.734,0.182,1.517,0.289,2.346,0.321v-7.294c-0.42-0.092-0.809-0.177-1.165-0.253c-0.357-0.093-0.688-0.179-0.992-0.271  c-1.712-0.461-2.939-1.15-3.685-2.073c-0.745-0.933-1.117-2.077-1.117-3.437c0-1.661,0.608-3.065,1.827-4.212  c1.227-1.146,2.938-1.813,5.132-2.004v-4.584h1.857v4.549c1.062,0.023,2.146,0.159,3.259,0.404c1.113,0.248,2.048,0.533,2.804,0.861  v3.303h-0.221c-0.787-0.519-1.609-0.973-2.471-1.366c-0.85-0.405-1.974-0.658-3.371-0.759v7.262  c0.316,0.058,0.656,0.134,1.023,0.236c0.366,0.089,0.688,0.163,0.962,0.219c1.563,0.36,2.771,0.977,3.622,1.854  c0.86,0.876,1.292,2.072,1.292,3.589C37.814,41.622,37.177,43.07,35.905,44.229z"/></svg>