<?xml version="1.0" encoding="UTF-8"?>
<svg width="68px" height="92px" viewBox="0 0 68 92" version="1.1" xmlns="http://www.w3.org/2000/svg" xmlns:xlink="http://www.w3.org/1999/xlink">
    <!-- Generator: Sketch 46.2 (44496) - http://www.bohemiancoding.com/sketch -->
    <title>shield</title>
    <desc>Created with Sketch.</desc>
    <defs></defs>
    <g id="Page-1" stroke="none" stroke-width="1" fill="none" fill-rule="evenodd">
        <g id="shield" transform="translate(-11.000000, 0.000000)">
            <rect id="Rectangle-path" x="0" y="1" width="90" height="89.999"></rect>
            <g id="Group" transform="translate(11.000000, 0.000000)" fill-rule="nonzero" fill="#FFFFFF">
                <path d="M66.53,34.44 C61.28,31.82 58.389,27.17 57.95,20.61 C57.61,15.57 58.91,11.24 58.92,11.2 C59.06,10.75 58.92,10.27 58.57,9.96 C53.16,5.28 46.769,3.08 42.37,2.05 C37.61,0.94 34.14,0.92 34,0.92 C33.85,0.92 30.39,0.94 25.63,2.05 C21.23,3.08 14.84,5.28 9.43,9.96 C9.08,10.27 8.94,10.75 9.08,11.2 C9.09,11.24 10.38,15.51 10.05,20.54 C9.63,27.14 6.74,31.81 1.47,34.44 C1.08,34.63 0.82,35.04 0.82,35.48 C0.82,35.87 0.8,45.18 4.78,56.72 C7.13,63.51 10.38,69.64 14.45,74.96 C19.54,81.62 25.94,86.99 33.45,90.94 C33.62,91.03 33.81,91.08 34,91.08 C34.19,91.08 34.38,91.03 34.55,90.94 C42.06,86.99 48.46,81.62 53.55,74.96 C57.62,69.64 60.87,63.51 63.22,56.72 C67.2,45.18 67.18,35.87 67.18,35.48 C67.18,35.04 66.92,34.63 66.53,34.44 Z M55.59,20.69 C56.02,27.46 58.93,32.62 64.01,35.74 L60.231,37.72 C55.18,33.86 52.281,28.07 51.821,20.94 C51.671,18.6 51.77,16.17 52.131,13.7 L56.251,12.18 C55.85,14.02 55.36,17.16 55.59,20.69 Z M17.27,13.53 C24.76,8.75 33.47,8.49 34,8.48 C34.53,8.49 43.24,8.75 50.73,13.53 C50.36,16.08 50.25,18.6 50.4,21.03 C50.65,24.86 51.58,28.36 53.16,31.43 C54.69,34.39 56.79,36.89 59.42,38.89 C59.06,42.64 58.17,48.3 55.95,54.599 C53.849,60.559 50.98,65.919 47.41,70.539 C43.71,75.339 39.2,79.379 34,82.559 C28.74,79.339 24.18,75.24 20.45,70.36 C16.87,65.69 14.01,60.269 11.93,54.25 C9.77,48.02 8.91,42.52 8.57,38.89 C11.2,36.9 13.31,34.39 14.83,31.44 C16.42,28.36 17.35,24.86 17.6,21.03 C17.75,18.6 17.64,16.08 17.27,13.53 Z M26.1,4.36 C30.61,3.3 33.97,3.28 34,3.28 C34.03,3.28 37.39,3.3 41.9,4.36 C45.71,5.26 51.11,7.1 55.87,10.81 L51.58,12.4 C43.67,7.3 34.41,7.07 34.01,7.06 C34,7.06 34,7.06 33.99,7.06 C33.59,7.07 24.33,7.3 16.42,12.4 L12.12,10.81 C16.89,7.1 22.29,5.26 26.1,4.36 Z M12.41,20.69 C12.64,17.16 12.15,14.02 11.75,12.18 L15.86,13.7 C16.23,16.17 16.33,18.6 16.18,20.94 C15.72,28.08 12.81,33.87 7.76,37.73 L3.99,35.74 C9.07,32.62 11.97,27.46 12.41,20.69 Z M60.98,55.95 C57.47,66.11 49.95,79.95 34,88.56 C18.08,79.97 10.55,66.16 7.04,56.03 C4.06,47.429 3.38,39.97 3.23,36.94 L7.16,39.01 C7.51,42.72 8.39,48.34 10.59,54.72 C12.72,60.88 15.66,66.43 19.32,71.231 C23.25,76.361 28.07,80.651 33.63,84.001 C33.75,84.071 33.87,84.101 34,84.101 C34.13,84.101 34.25,84.072 34.37,84.001 C39.87,80.691 44.63,76.461 48.54,71.411 C52.2,66.671 55.14,61.171 57.29,55.081 C59.55,48.631 60.47,42.841 60.83,39.001 L64.769,36.941 C64.62,39.95 63.95,47.37 60.98,55.95 Z" id="Shape"></path>
            </g>
        </g>
    </g>
</svg>