<svg fill="#FFFFFF" xmlns="http://www.w3.org/2000/svg" xmlns:xlink="http://www.w3.org/1999/xlink" version="1.1" x="0px" y="0px" viewBox="0 0 24 24" style="enable-background:new 0 0 24 24;" xml:space="preserve"><g><path d="M15.658,9.008l-3.153,3.15c-0.401-0.194-0.913-0.121-1.22,0.186c-0.202,0.201-0.313,0.469-0.313,0.752   c0,0.285,0.109,0.553,0.311,0.755c0.204,0.202,0.473,0.313,0.756,0.313s0.551-0.11,0.751-0.311   c0.327-0.326,0.403-0.822,0.198-1.231l3.143-3.141c0.063-0.062,0.098-0.147,0.098-0.236c0-0.092-0.036-0.179-0.098-0.235   C16.004,8.88,15.783,8.883,15.658,9.008z M12.318,13.379c-0.066,0.066-0.168,0.104-0.279,0.104h-0.001   c-0.112-0.001-0.214-0.039-0.281-0.107c-0.074-0.073-0.116-0.173-0.116-0.278s0.042-0.205,0.117-0.281   c0.074-0.075,0.174-0.117,0.281-0.117s0.205,0.041,0.281,0.117C12.474,12.971,12.473,13.223,12.318,13.379z"></path><path d="M18.33,6.781C16.639,5.089,14.391,4.159,12,4.159c-2.389,0-4.635,0.929-6.322,2.616c-1.691,1.689-2.623,3.935-2.623,6.323   c-0.002,1.141,0.22,2.267,0.661,3.348l-0.003,0.028l0.047,0.079c0.523,1.24,1.286,2.316,2.268,3.198   c0.064,0.058,0.153,0.091,0.247,0.081c0.088-0.006,0.169-0.044,0.22-0.103c0.063-0.066,0.096-0.153,0.09-0.244   c-0.004-0.09-0.044-0.173-0.111-0.231c-0.837-0.752-1.503-1.656-1.979-2.688l0.966-0.401c0.081-0.032,0.144-0.094,0.184-0.181   c0.034-0.084,0.033-0.176-0.003-0.258c-0.034-0.081-0.104-0.146-0.189-0.18c-0.085-0.031-0.174-0.03-0.243,0l-0.965,0.4   c-0.304-0.817-0.475-1.663-0.509-2.518h1.05c0.185,0,0.334-0.149,0.334-0.334s-0.149-0.334-0.334-0.334h-1.05   c0.033-0.868,0.201-1.715,0.5-2.521l0.96,0.398c0.075,0.035,0.171,0.037,0.256,0.005c0.088-0.033,0.158-0.099,0.192-0.181   c0.071-0.169-0.009-0.365-0.18-0.438L4.487,9.624C4.851,8.842,5.332,8.126,5.92,7.492l0.738,0.739   c0.06,0.061,0.145,0.097,0.233,0.098c0.002,0,0.003,0,0.004,0c0.091,0,0.178-0.035,0.241-0.098C7.262,8.102,7.261,7.89,7.133,7.759   l-0.739-0.74C7.03,6.43,7.748,5.951,8.527,5.589l0.403,0.974c0.053,0.124,0.174,0.204,0.308,0.204c0.045,0,0.092-0.01,0.127-0.025   C9.447,6.708,9.512,6.644,9.546,6.56c0.033-0.084,0.033-0.173,0-0.256L9.144,5.333c0.81-0.296,1.657-0.463,2.522-0.495v1.046   c0,0.185,0.15,0.335,0.336,0.335c0.184,0,0.332-0.15,0.332-0.335V4.838c0.866,0.032,1.713,0.199,2.521,0.495L14.45,6.308   c-0.033,0.082-0.033,0.172,0.001,0.258c0.035,0.081,0.1,0.146,0.164,0.171c0.043,0.021,0.092,0.031,0.146,0.031   c0.137,0,0.258-0.08,0.309-0.205l0.403-0.974c0.779,0.36,1.496,0.842,2.134,1.431l-0.744,0.744   c-0.129,0.13-0.128,0.342,0.002,0.474c0.129,0.126,0.345,0.124,0.472-0.002l0.744-0.744c0.593,0.642,1.073,1.359,1.433,2.136   l-0.98,0.404c-0.169,0.074-0.25,0.27-0.18,0.434c0.05,0.125,0.174,0.208,0.308,0.208c0.031,0,0.091-0.004,0.128-0.024l0.979-0.405   c0.297,0.806,0.465,1.653,0.498,2.522h-1.057c-0.184,0-0.333,0.15-0.333,0.336c0,0.185,0.149,0.334,0.333,0.334l1.057-0.001   c-0.034,0.853-0.206,1.698-0.512,2.518l-0.965-0.4c-0.079-0.034-0.174-0.034-0.257,0.002c-0.084,0.034-0.149,0.101-0.179,0.176   c-0.036,0.083-0.037,0.174-0.003,0.256c0.032,0.084,0.098,0.149,0.182,0.184l0.973,0.401c-0.479,1.03-1.145,1.935-1.98,2.687   c-0.065,0.057-0.105,0.138-0.114,0.232c-0.004,0.089,0.025,0.174,0.082,0.238c0.063,0.072,0.154,0.113,0.252,0.113   c0.086,0,0.166-0.03,0.223-0.085c0.974-0.874,1.759-1.981,2.271-3.2l0.032-0.07l0.009-0.03c0.44-1.081,0.664-2.207,0.666-3.348   C20.948,10.72,20.02,8.473,18.33,6.781z"></path></g></svg>