<svg xmlns="http://www.w3.org/2000/svg" xmlns:xlink="http://www.w3.org/1999/xlink" version="1.1" x="0px" y="0px" viewBox="0 0 100 125" style="enable-background:new 0 0 100 100;" xml:space="preserve"><path d="M74.364,22.079c-3.81,0-6.909,3.099-6.909,6.909s3.1,6.909,6.909,6.909s6.909-3.099,6.909-6.909  S78.174,22.079,74.364,22.079z M74.364,33.896c-2.707,0-4.909-2.202-4.909-4.909s2.202-4.909,4.909-4.909s4.909,2.202,4.909,4.909  S77.071,33.896,74.364,33.896z"/><path d="M89.431,28.988c0-0.552-0.447-1-1-1h-2.813c-0.553,0-1,0.448-1,1s0.447,1,1,1h2.813  C88.983,29.988,89.431,29.54,89.431,28.988z"/><path d="M84.783,33.356c-0.487-0.258-1.093-0.07-1.352,0.417c-0.258,0.488-0.07,1.093,0.418,1.351l2.487,1.313  c0.148,0.079,0.309,0.116,0.466,0.116c0.359,0,0.706-0.194,0.886-0.533c0.258-0.488,0.07-1.093-0.418-1.351L84.783,33.356z"/><path d="M80.149,37.452c-0.456,0.312-0.573,0.934-0.261,1.39l1.588,2.323c0.193,0.283,0.507,0.436,0.826,0.436  c0.194,0,0.391-0.057,0.563-0.174c0.456-0.312,0.573-0.934,0.261-1.39l-1.588-2.323C81.229,37.258,80.606,37.142,80.149,37.452z"/><path d="M75.529,39.174c-0.548,0.063-0.942,0.559-0.879,1.107l0.32,2.795c0.059,0.51,0.49,0.886,0.992,0.886  c0.038,0,0.076-0.002,0.115-0.006c0.548-0.063,0.942-0.559,0.879-1.107l-0.32-2.795C76.573,39.505,76.081,39.111,75.529,39.174z"/><path d="M69.346,39.109l-1.021,2.621c-0.2,0.515,0.054,1.095,0.568,1.295c0.119,0.046,0.242,0.069,0.363,0.069  c0.399,0,0.777-0.242,0.932-0.637l1.021-2.621c0.2-0.515-0.054-1.095-0.568-1.295C70.128,38.341,69.547,38.594,69.346,39.109z"/><path d="M63.729,39.193c0.232,0,0.465-0.08,0.654-0.244l2.127-1.841c0.418-0.362,0.463-0.993,0.102-1.411  c-0.361-0.418-0.993-0.463-1.41-0.102l-2.127,1.841c-0.418,0.362-0.463,0.993-0.102,1.411C63.171,39.076,63.45,39.193,63.729,39.193  z"/><path d="M59.688,32.391c0.107,0.462,0.519,0.774,0.974,0.774c0.075,0,0.15-0.008,0.227-0.026l2.74-0.635  c0.538-0.125,0.873-0.662,0.749-1.2c-0.125-0.538-0.662-0.869-1.2-0.748l-2.74,0.635C59.898,31.315,59.563,31.853,59.688,32.391z"/><path d="M60.509,26.369l2.72,0.717c0.086,0.022,0.171,0.034,0.256,0.034c0.442,0,0.848-0.297,0.966-0.746  c0.141-0.534-0.178-1.081-0.712-1.222l-2.72-0.717c-0.533-0.137-1.081,0.177-1.222,0.712C59.656,25.682,59.975,26.229,60.509,26.369  z"/><path d="M66.757,20.636l-2.07-1.904c-0.406-0.372-1.037-0.348-1.413,0.06c-0.374,0.406-0.347,1.039,0.06,1.413l2.07,1.904  c0.192,0.176,0.435,0.264,0.677,0.264c0.27,0,0.539-0.109,0.736-0.323C67.19,21.643,67.163,21.01,66.757,20.636z"/><path d="M70.593,19.386c0.111,0,0.225-0.019,0.335-0.059c0.521-0.185,0.792-0.757,0.607-1.277l-0.943-2.65  c-0.187-0.521-0.761-0.792-1.277-0.606c-0.521,0.185-0.792,0.757-0.607,1.277l0.943,2.65C69.797,19.13,70.182,19.386,70.593,19.386z  "/><path d="M75.979,18.851c0.489,0,0.917-0.359,0.988-0.856l0.403-2.784c0.08-0.547-0.299-1.054-0.846-1.133  c-0.549-0.078-1.055,0.299-1.133,0.846l-0.403,2.784c-0.08,0.547,0.299,1.054,0.846,1.133  C75.883,18.848,75.931,18.851,75.979,18.851z"/><path d="M81.836,17.029l-1.655,2.274c-0.325,0.446-0.227,1.072,0.22,1.397c0.178,0.129,0.384,0.191,0.588,0.191  c0.309,0,0.613-0.143,0.81-0.412l1.655-2.274c0.325-0.446,0.227-1.072-0.22-1.397S82.162,16.582,81.836,17.029z"/><path d="M86.555,21.899l-2.526,1.238c-0.495,0.243-0.7,0.842-0.458,1.338c0.174,0.354,0.529,0.56,0.899,0.56  c0.147,0,0.298-0.033,0.439-0.102l2.526-1.238c0.495-0.243,0.7-0.842,0.458-1.338C87.65,21.862,87.052,21.656,86.555,21.899z"/><path d="M87.952,55.526l-26.833-6.534c-0.981-0.239-1.995-0.072-2.849,0.473c-0.769,0.491-1.3,1.234-1.545,2.102l-1.909-0.438  c-0.217-2.008-1.689-3.641-3.628-4.066v-1.743h0.134c1.014,0,1.957-0.403,2.658-1.134c0.701-0.732,1.063-1.692,1.02-2.705  l-1.187-27.591c-0.084-1.948-1.676-3.473-3.625-3.473s-3.542,1.525-3.626,3.473l-1.186,27.591c-0.044,1.013,0.318,1.973,1.02,2.705  c0.7,0.731,1.645,1.134,2.657,1.134h0.135v1.743c-1.905,0.417-3.36,2-3.617,3.96l-2.369,0.544c-0.244-0.867-0.774-1.611-1.543-2.102  c-0.854-0.545-1.869-0.714-2.851-0.474l-26.834,6.534c-1.894,0.462-3.079,2.321-2.699,4.232c0.342,1.725,1.845,2.923,3.551,2.923  c0.185,0,0.372-0.014,0.561-0.043l27.295-4.207c1.001-0.154,1.873-0.696,2.454-1.526c0.582-0.83,0.793-1.834,0.596-2.828  l-0.11-0.554l2.129-0.489c0.502,1.579,1.802,2.802,3.439,3.16v2.631c-1.665,0.454-2.939,1.906-3.062,3.682l-2.419,26.401  c-0.025,0.28,0.068,0.558,0.258,0.766C44.155,89.882,44.423,90,44.704,90h11.127c0.281,0,0.549-0.118,0.738-0.326  c0.189-0.208,0.283-0.486,0.258-0.766L54.41,62.53c-0.128-1.851-1.478-3.35-3.222-3.751v-2.584c1.604-0.351,2.885-1.531,3.409-3.064  l1.709,0.392l-0.11,0.554c-0.197,0.993,0.014,1.998,0.596,2.828c0.581,0.83,1.453,1.372,2.454,1.526l27.295,4.207  c0.188,0.029,0.376,0.043,0.561,0.043c1.705,0,3.208-1.198,3.551-2.923C91.033,57.847,89.847,55.988,87.952,55.526z M47.841,42.803  c-0.32-0.334-0.485-0.773-0.466-1.235l1.186-27.591c0.038-0.874,0.753-1.559,1.628-1.559s1.589,0.685,1.627,1.559l1.187,27.591  c0.02,0.462-0.146,0.901-0.466,1.235c-0.319,0.334-0.751,0.518-1.214,0.518h-2.269C48.592,43.321,48.16,43.137,47.841,42.803z   M41.497,55.758c-0.266,0.379-0.664,0.627-1.121,0.697l-27.295,4.207c-0.866,0.135-1.676-0.435-1.846-1.292v0  c-0.17-0.858,0.362-1.692,1.212-1.899l26.833-6.534c0.134-0.033,0.269-0.049,0.402-0.049c0.315,0,0.626,0.09,0.899,0.265  c0.391,0.249,0.654,0.636,0.745,1.09l0.442,2.225C41.859,54.92,41.763,55.379,41.497,55.758z M52.416,62.69L54.735,88H45.8  l2.321-25.333c0.077-1.123,1.021-2.003,2.146-2.003S52.337,61.544,52.416,62.69z M50.188,54.308c-1.477,0-2.679-1.202-2.679-2.679  c0-1.477,1.202-2.679,2.679-2.679s2.679,1.202,2.679,2.679C52.867,53.106,51.665,54.308,50.188,54.308z M88.692,59.369  c-0.171,0.857-0.964,1.43-1.846,1.293l-27.295-4.207c-0.457-0.07-0.855-0.318-1.121-0.697s-0.362-0.837-0.272-1.291l0.441-2.225  c0.091-0.455,0.355-0.842,0.746-1.091c0.273-0.175,0.583-0.265,0.899-0.265c0.133,0,0.268,0.016,0.401,0.049l26.832,6.534  C88.33,57.676,88.862,58.511,88.692,59.369z"/></svg>