<?xml version="1.0" encoding="UTF-8"?>
<svg width="82px" height="80px" viewBox="0 0 82 80" version="1.1" xmlns="http://www.w3.org/2000/svg" xmlns:xlink="http://www.w3.org/1999/xlink">
    <!-- Generator: Sketch 46.2 (44496) - http://www.bohemiancoding.com/sketch -->
    <title>turbine</title>
    <desc>Created with Sketch.</desc>
    <defs></defs>
    <g id="Page-1" stroke="none" stroke-width="1" fill="none" fill-rule="evenodd">
        <g id="turbine" fill-rule="nonzero" fill="#FFFFFF">
            <path d="M65.364,12.079 C61.554,12.079 58.455,15.178 58.455,18.988 C58.455,22.798 61.555,25.897 65.364,25.897 C69.173,25.897 72.273,22.798 72.273,18.988 C72.273,15.178 69.174,12.079 65.364,12.079 Z M65.364,23.896 C62.657,23.896 60.455,21.694 60.455,18.987 C60.455,16.28 62.657,14.078 65.364,14.078 C68.071,14.078 70.273,16.28 70.273,18.987 C70.273,21.694 68.071,23.896 65.364,23.896 Z" id="Shape"></path>
            <path d="M80.431,18.988 C80.431,18.436 79.984,17.988 79.431,17.988 L76.618,17.988 C76.065,17.988 75.618,18.436 75.618,18.988 C75.618,19.54 76.065,19.988 76.618,19.988 L79.431,19.988 C79.983,19.988 80.431,19.54 80.431,18.988 Z" id="Shape"></path>
            <path d="M75.783,23.356 C75.296,23.098 74.69,23.286 74.431,23.773 C74.173,24.261 74.361,24.866 74.849,25.124 L77.336,26.437 C77.484,26.516 77.645,26.553 77.802,26.553 C78.161,26.553 78.508,26.359 78.688,26.02 C78.946,25.532 78.758,24.927 78.27,24.669 L75.783,23.356 Z" id="Shape"></path>
            <path d="M71.149,27.452 C70.693,27.764 70.576,28.386 70.888,28.842 L72.476,31.165 C72.669,31.448 72.983,31.601 73.302,31.601 C73.496,31.601 73.693,31.544 73.865,31.427 C74.321,31.115 74.438,30.493 74.126,30.037 L72.538,27.714 C72.229,27.258 71.606,27.142 71.149,27.452 Z" id="Shape"></path>
            <path d="M66.529,29.174 C65.981,29.237 65.587,29.733 65.65,30.281 L65.97,33.076 C66.029,33.586 66.46,33.962 66.962,33.962 C67,33.962 67.038,33.96 67.077,33.956 C67.625,33.893 68.019,33.397 67.956,32.849 L67.636,30.054 C67.573,29.505 67.081,29.111 66.529,29.174 Z" id="Shape"></path>
            <path d="M60.346,29.109 L59.325,31.73 C59.125,32.245 59.379,32.825 59.893,33.025 C60.012,33.071 60.135,33.094 60.256,33.094 C60.655,33.094 61.033,32.852 61.188,32.457 L62.209,29.836 C62.409,29.321 62.155,28.741 61.641,28.541 C61.128,28.341 60.547,28.594 60.346,29.109 Z" id="Shape"></path>
            <path d="M54.729,29.193 C54.961,29.193 55.194,29.113 55.383,28.949 L57.51,27.108 C57.928,26.746 57.973,26.115 57.612,25.697 C57.251,25.279 56.619,25.234 56.202,25.595 L54.075,27.436 C53.657,27.798 53.612,28.429 53.973,28.847 C54.171,29.076 54.45,29.193 54.729,29.193 Z" id="Shape"></path>
            <path d="M50.688,22.391 C50.795,22.853 51.207,23.165 51.662,23.165 C51.737,23.165 51.812,23.157 51.889,23.139 L54.629,22.504 C55.167,22.379 55.502,21.842 55.378,21.304 C55.253,20.766 54.716,20.435 54.178,20.556 L51.438,21.191 C50.898,21.315 50.563,21.853 50.688,22.391 Z" id="Shape"></path>
            <path d="M51.509,16.369 L54.229,17.086 C54.315,17.108 54.4,17.12 54.485,17.12 C54.927,17.12 55.333,16.823 55.451,16.374 C55.592,15.84 55.273,15.293 54.739,15.152 L52.019,14.435 C51.486,14.298 50.938,14.612 50.797,15.147 C50.656,15.682 50.975,16.229 51.509,16.369 Z" id="Shape"></path>
            <path d="M57.757,10.636 L55.687,8.732 C55.281,8.36 54.65,8.384 54.274,8.792 C53.9,9.198 53.927,9.831 54.334,10.205 L56.404,12.109 C56.596,12.285 56.839,12.373 57.081,12.373 C57.351,12.373 57.62,12.264 57.817,12.05 C58.19,11.643 58.163,11.01 57.757,10.636 Z" id="Shape"></path>
            <path d="M61.593,9.386 C61.704,9.386 61.818,9.367 61.928,9.327 C62.449,9.142 62.72,8.57 62.535,8.05 L61.592,5.4 C61.405,4.879 60.831,4.608 60.315,4.794 C59.794,4.979 59.523,5.551 59.708,6.071 L60.651,8.721 C60.797,9.13 61.182,9.386 61.593,9.386 Z" id="Shape"></path>
            <path d="M66.979,8.851 C67.468,8.851 67.896,8.492 67.967,7.995 L68.37,5.211 C68.45,4.664 68.071,4.157 67.524,4.078 C66.975,4 66.469,4.377 66.391,4.924 L65.988,7.708 C65.908,8.255 66.287,8.762 66.834,8.841 C66.883,8.848 66.931,8.851 66.979,8.851 Z" id="Shape"></path>
            <path d="M72.836,7.029 L71.181,9.303 C70.856,9.749 70.954,10.375 71.401,10.7 C71.579,10.829 71.785,10.891 71.989,10.891 C72.298,10.891 72.602,10.748 72.799,10.479 L74.454,8.205 C74.779,7.759 74.681,7.133 74.234,6.808 C73.787,6.483 73.162,6.582 72.836,7.029 Z" id="Shape"></path>
            <path d="M77.555,11.899 L75.029,13.137 C74.534,13.38 74.329,13.979 74.571,14.475 C74.745,14.829 75.1,15.035 75.47,15.035 C75.617,15.035 75.768,15.002 75.909,14.933 L78.435,13.695 C78.93,13.452 79.135,12.853 78.893,12.357 C78.65,11.862 78.052,11.656 77.555,11.899 Z" id="Shape"></path>
            <path d="M78.952,45.526 L52.119,38.992 C51.138,38.753 50.124,38.92 49.27,39.465 C48.501,39.956 47.97,40.699 47.725,41.567 L45.816,41.129 C45.599,39.121 44.127,37.488 42.188,37.063 L42.188,35.32 L42.322,35.32 C43.336,35.32 44.279,34.917 44.98,34.186 C45.681,33.454 46.043,32.494 46,31.481 L44.813,3.89 C44.729,1.942 43.137,0.417 41.188,0.417 C39.239,0.417 37.646,1.942 37.562,3.89 L36.376,31.481 C36.332,32.494 36.694,33.454 37.396,34.186 C38.096,34.917 39.041,35.32 40.053,35.32 L40.188,35.32 L40.188,37.063 C38.283,37.48 36.828,39.063 36.571,41.023 L34.202,41.567 C33.958,40.7 33.428,39.956 32.659,39.465 C31.805,38.92 30.79,38.751 29.808,38.991 L2.974,45.525 C1.08,45.987 -0.105,47.846 0.275,49.757 C0.617,51.482 2.12,52.68 3.826,52.68 C4.011,52.68 4.198,52.666 4.387,52.637 L31.682,48.43 C32.683,48.276 33.555,47.734 34.136,46.904 C34.718,46.074 34.929,45.07 34.732,44.076 L34.622,43.522 L36.751,43.033 C37.253,44.612 38.553,45.835 40.19,46.193 L40.19,48.824 C38.525,49.278 37.251,50.73 37.128,52.506 L34.709,78.907 C34.684,79.187 34.777,79.465 34.967,79.673 C35.155,79.882 35.423,80 35.704,80 L46.831,80 C47.112,80 47.38,79.882 47.569,79.674 C47.758,79.466 47.852,79.188 47.827,78.908 L45.41,52.53 C45.282,50.679 43.932,49.18 42.188,48.779 L42.188,46.195 C43.792,45.844 45.073,44.664 45.597,43.131 L47.306,43.523 L47.196,44.077 C46.999,45.07 47.21,46.075 47.792,46.905 C48.373,47.735 49.245,48.277 50.246,48.431 L77.541,52.638 C77.729,52.667 77.917,52.681 78.102,52.681 C79.807,52.681 81.31,51.483 81.653,49.758 C82.033,47.847 80.847,45.988 78.952,45.526 Z M38.841,32.803 C38.521,32.469 38.356,32.03 38.375,31.568 L39.561,3.977 C39.599,3.103 40.314,2.418 41.189,2.418 C42.064,2.418 42.778,3.103 42.816,3.977 L44.003,31.568 C44.023,32.03 43.857,32.469 43.537,32.803 C43.218,33.137 42.786,33.321 42.323,33.321 L40.054,33.321 C39.592,33.321 39.16,33.137 38.841,32.803 Z M32.497,45.758 C32.231,46.137 31.833,46.385 31.376,46.455 L4.081,50.662 C3.215,50.797 2.405,50.227 2.235,49.37 L2.235,49.37 C2.065,48.512 2.597,47.678 3.447,47.471 L30.28,40.937 C30.414,40.904 30.549,40.888 30.682,40.888 C30.997,40.888 31.308,40.978 31.581,41.153 C31.972,41.402 32.235,41.789 32.326,42.243 L32.768,44.468 C32.859,44.92 32.763,45.379 32.497,45.758 Z M43.416,52.69 L45.735,78 L36.8,78 L39.121,52.667 C39.198,51.544 40.142,50.664 41.267,50.664 C42.392,50.664 43.337,51.544 43.416,52.69 Z M41.188,44.308 C39.711,44.308 38.509,43.106 38.509,41.629 C38.509,40.152 39.711,38.95 41.188,38.95 C42.665,38.95 43.867,40.152 43.867,41.629 C43.867,43.106 42.665,44.308 41.188,44.308 Z M79.692,49.369 C79.521,50.226 78.728,50.799 77.846,50.662 L50.551,46.455 C50.094,46.385 49.696,46.137 49.43,45.758 C49.164,45.379 49.068,44.921 49.158,44.467 L49.599,42.242 C49.69,41.787 49.954,41.4 50.345,41.151 C50.618,40.976 50.928,40.886 51.244,40.886 C51.377,40.886 51.512,40.902 51.645,40.935 L78.477,47.469 C79.33,47.676 79.862,48.511 79.692,49.369 Z" id="Shape"></path>
        </g>
    </g>
</svg>