<svg fill="#FFFFFF" xmlns:dc="http://purl.org/dc/elements/1.1/" xmlns:cc="http://creativecommons.org/ns#" xmlns:rdf="http://www.w3.org/1999/02/22-rdf-syntax-ns#" xmlns:svg="http://www.w3.org/2000/svg" xmlns="http://www.w3.org/2000/svg" xmlns:sodipodi="http://sodipodi.sourceforge.net/DTD/sodipodi-0.dtd" xmlns:inkscape="http://www.inkscape.org/namespaces/inkscape" version="1.1" x="0px" y="0px" viewBox="0 0 100 100"><g transform="translate(0,-952.36218)"><path style="text-indent:0;text-transform:none;direction:ltr;block-progression:tb;baseline-shift:baseline;color:#000000;enable-background:accumulate;" d="m 93.997676,1044.6748 a 1.8724777,1.8725287 0 0 1 -1.8438,1.6874 l -84.2790011,0 a 1.8724777,1.8725287 0 0 1 -1.8749,-1.875 l 0,-84.25004 a 1.8724777,1.8725287 0 0 1 1.8749,-1.875 l 84.2790011,0 a 1.8724777,1.8725287 0 0 1 1.8438,1.875 l 0,84.25004 a 1.8724777,1.8725287 0 0 1 0,0.1876 z m -3.7187,-2.0626 0,-80.50004 -80.5291011,0 0,80.50004 80.5291011,0 z m -27.2493,-47.1875 a 1.9986546,1.9954672 0 0 1 -3.4999,1.2499 l -7.531,-8.1562 0,32.75 a 1.9986546,1.9954672 0 0 1 0,0.1875 2.0021533,1.9989602 0 1 1 -3.9999,-0.1875 l 0,-32.75 -7.4998,8.1562 a 2.0036878,2.0004924 0 1 1 -2.9687,-2.6874 l 10.9997,-11.96884 a 1.9986546,1.9954672 0 0 1 2.9687,0 l 10.9997,11.96884 a 1.9986546,1.9954672 0 0 1 0.5312,1.4375 z" fill="#FFFFFF" fill-opacity="1" stroke="none" marker="none" visibility="visible" display="inline" overflow="visible"></path></g></svg>