<svg xmlns:dc="http://purl.org/dc/elements/1.1/" xmlns:cc="http://creativecommons.org/ns#" xmlns:rdf="http://www.w3.org/1999/02/22-rdf-syntax-ns#" xmlns:svg="http://www.w3.org/2000/svg" xmlns="http://www.w3.org/2000/svg" xmlns:sodipodi="http://sodipodi.sourceforge.net/DTD/sodipodi-0.dtd" xmlns:inkscape="http://www.inkscape.org/namespaces/inkscape" version="1.1" x="0px" y="0px" viewBox="0 0 100 125"><g transform="translate(0,-952.36218)"><path style="text-indent:0;text-transform:none;direction:ltr;block-progression:tb;baseline-shift:baseline;color:#000000;enable-background:accumulate;" d="m 36,962.36219 0,2 0,23.99998 -24,0 -2.0000005,0 0,2 0,24.00003 0,2 2.0000005,0 24,0 0,24 0,2 2,0 24.000001,0 1.999999,0 0,-2 0,-24 24,0 2,0 0,-2 0,-24.00003 0,-2 -2,0 -24,0 0,-23.99998 0,-2 -2,0 -24.000001,0 -2,0 z m 4,4 20.000001,0 0,23.99998 0,2 2,0 23.999999,0 0,20.00003 -23.999999,0 -2,0 0,2 0,24 -20.000001,0 0,-24 0,-2 -2,0 -24,0 0,-20.00003 24,0 2,0 0,-2 0,-23.99998 z" fill="#000000" fill-opacity="1" stroke="none" marker="none" visibility="visible" display="inline" overflow="visible"/></g></svg>