<?xml version="1.0" encoding="UTF-8"?>
<svg width="80px" height="80px" viewBox="0 0 80 80" version="1.1" xmlns="http://www.w3.org/2000/svg" xmlns:xlink="http://www.w3.org/1999/xlink">
    <!-- Generator: Sketch 46.2 (44496) - http://www.bohemiancoding.com/sketch -->
    <title>Shape</title>
    <desc>Created with Sketch.</desc>
    <defs></defs>
    <g id="Page-1" stroke="none" stroke-width="1" fill="none" fill-rule="evenodd">
        <g id="upgrade" fill-rule="nonzero" fill="#FFFFFF">
            <path d="M26,1.00000001e-05 L26,2.00001 L26,25.99999 L2,25.99999 L-4.99999999e-07,25.99999 L-4.99999999e-07,27.99999 L-4.99999999e-07,52.00002 L-4.99999999e-07,54.00002 L2,54.00002 L26,54.00002 L26,78.00002 L26,80.00002 L28,80.00002 L52.000001,80.00002 L54,80.00002 L54,78.00002 L54,54.00002 L78,54.00002 L80,54.00002 L80,52.00002 L80,27.99999 L80,25.99999 L78,25.99999 L54,25.99999 L54,2.00001 L54,9.99999997e-06 L52,9.99999997e-06 L27.999999,9.99999997e-06 L25.999999,9.99999997e-06 L26,1.00000001e-05 Z M30,4.00001 L50.000001,4.00001 L50.000001,27.99999 L50.000001,29.99999 L52.000001,29.99999 L76,29.99999 L76,50.00002 L52.000001,50.00002 L50.000001,50.00002 L50.000001,52.00002 L50.000001,76.00002 L30,76.00002 L30,52.00002 L30,50.00002 L28,50.00002 L4,50.00002 L4,29.99999 L28,29.99999 L30,29.99999 L30,27.99999 L30,4.00001 L30,4.00001 Z" id="Shape"></path>
        </g>
    </g>
</svg>